<svg width="1500" height="754" version="1.1" xmlns="http://www.w3.org/2000/svg" desc="Created with imagetracer.js version 1.2.6" ><path fill="rgb(0,0,0)" stroke="rgb(0,0,0)" stroke-width="1" opacity="0" d="M 479 0 L 798.5 0 L 799 0.5 L 799 73 L 897.5 73 L 906.5 76 L 914 82.5 L 918 90.5 Q 917 94.5 919 95.5 L 919 229 L 444.5 229 L 444 229.5 L 444 303 L 536.5 303 L 537.5 304 L 544.5 305 L 550.5 308 L 557 313.5 L 562 322.5 Q 561.25 325.75 563 326.5 L 563 334.5 L 564 335.5 L 564 450 L 549.5 450 L 548.5 449 L 528.5 449 L 527.5 448 L 516.5 448 L 515.5 447 L 499.5 446 L 498.5 445 L 493.5 445 L 492.5 444 L 487.5 444 L 486.5 443 L 477.5 442 L 476.5 441 L 461.5 438 L 454.5 435 L 451.5 435 L 448.5 433 L 438.5 430 L 431.5 426 L 429.5 426 L 418.5 420 L 401.5 408 L 387 393.5 L 377 379.5 L 368 360.5 L 364 348.5 L 364 345.5 L 363 344.5 L 363 340.5 L 361 334.5 L 361 329.5 L 360 328.5 L 360 321.5 L 359 320.5 L 359 306.5 L 358 305.5 L 358 100.5 L 359 99.5 L 359 93.5 L 361 87.5 Q 363.67 80.67 369.5 77 L 380.5 73 L 479 73 L 479 0 Z " /><path fill="rgb(0,0,0)" stroke="rgb(0,0,0)" stroke-width="1" opacity="0" d="M 1182 0 L 1500 0 L 1500 754 L 0 754 L 0 73 L 98.5 73 L 107.5 76 L 114 81.5 L 118 88.5 L 119 95.5 L 120 96.5 L 120 305.5 L 121 306.5 L 121 317.5 L 122 318.5 L 122 325.5 L 123 326.5 L 123 330.5 L 124 331.5 L 124 335.5 L 125 336.5 L 125 340.5 L 128 348.5 L 128 351.5 L 139 378.5 L 141 380.5 L 144 387.5 L 158 407.5 L 178.5 429 Q 193.3 442.2 210.5 453 L 241.5 470 L 243.5 470 L 250.5 474 L 252.5 474 L 267.5 481 L 272.5 482 L 275.5 484 L 296.5 491 L 299.5 491 L 310.5 495 L 313.5 495 L 314.5 496 L 317.5 496 L 318.5 497 L 321.5 497 L 322.5 498 L 325.5 498 L 326.5 499 L 329.5 499 L 338.5 502 L 342.5 502 L 343.5 503 L 347.5 503 L 348.5 504 L 352.5 504 L 353.5 505 L 357.5 505 L 363.5 507 L 368.5 507 L 374.5 509 L 379.5 509 L 380.5 510 L 386.5 510 L 387.5 511 L 393.5 511 L 394.5 512 L 407.5 513 L 408.5 514 L 424.5 515 L 425.5 516 L 445.5 517 L 446.5 518 L 471.5 519 L 472.5 520 L 488.5 520 L 489.5 521 L 512.5 521 L 513.5 522 L 564 522 L 564 646.5 L 563 647.5 L 563 655.5 L 562 656.5 L 561 662.5 Q 557.56 669.56 551.5 674 L 538.5 679 L 443 679 L 443 752.5 L 443.5 753 L 1360.5 753 L 1361.5 752 L 1372.5 752 L 1373.5 751 L 1379.5 751 L 1380.5 750 L 1389.5 749 L 1416.5 740 Q 1444.52 727.52 1464 706.5 L 1478 688.5 L 1490 664.5 L 1493 655.5 L 1493 652.5 L 1495 647.5 L 1495 643.5 L 1496 642.5 L 1496 637.5 L 1497 636.5 L 1497 626.5 L 1498 625.5 L 1498 609.5 L 1497 608.5 L 1497 599.5 L 1496 598.5 L 1495 588.5 L 1494 587.5 L 1493 580.5 L 1489 568.5 L 1487 565.5 L 1487 563.5 Q 1475.1 537.4 1455.5 519 L 1443.5 509 L 1431.5 501 L 1415.5 493 L 1413.5 493 L 1410.5 491 L 1401.5 488 L 1398.5 488 L 1389.5 485 L 1384.5 485 L 1383.5 484 L 1379 484 L 1380.5 481 L 1384.5 481 L 1385.5 480 L 1389.5 480 L 1390.5 479 L 1394.5 479 L 1398.5 477 L 1401.5 477 L 1426.5 466 L 1442.5 455 L 1455 443.5 L 1470 424.5 L 1482 400.5 L 1485 391.5 L 1485 388.5 L 1487 383.5 L 1487 379.5 L 1488 378.5 L 1488 373.5 L 1489 372.5 L 1490 351.5 L 1489 350.5 L 1489 339.5 L 1488 338.5 L 1487 327.5 L 1486 326.5 L 1486 323.5 L 1481 308.5 L 1473 292.5 L 1467 283.5 L 1452.5 267 L 1433.5 252 L 1410.5 240 L 1392.5 234 L 1389.5 234 L 1384.5 232 L 1379.5 232 L 1378.5 231 L 1373.5 231 L 1372.5 230 L 1361.5 230 L 1360.5 229 L 1062 229 L 1062 97.5 L 1063 96.5 L 1063 92.5 L 1065 86.5 L 1070.5 79 L 1079.5 74 Q 1083.5 75 1084.5 73 L 1182 73 L 1182 0 Z " /><path fill="rgb(0,0,0)" stroke="rgb(0,0,0)" stroke-width="1" opacity="0" d="M 800 303 L 919 303 L 919 354.5 L 918 355.5 L 918 361.5 L 917 362.5 L 916 370.5 L 912 382.5 L 906 395.5 L 894 412.5 L 883.5 423 L 869.5 433 L 855.5 440 L 840.5 445 L 832.5 446 L 831.5 447 L 827.5 447 L 826.5 448 L 820.5 448 L 819.5 449 L 807.5 449 L 806.5 450 L 800 450 L 800 303 Z " /><path fill="rgb(0,0,0)" stroke="rgb(0,0,0)" stroke-width="1" opacity="0" d="M 1062 303 L 1232.5 303 L 1233.5 304 L 1242.5 305 L 1257.5 311 L 1269.5 319 L 1280 329.5 L 1287 339.5 L 1291 347.5 L 1295 359.5 Q 1294 363.5 1296 364.5 L 1296 386.5 L 1295 387.5 L 1294 395.5 L 1288 410.5 L 1278 424.5 L 1271.5 431 Q 1262.49 438.99 1250.5 444 L 1244.5 446 L 1241.5 446 L 1240.5 447 L 1237.5 447 L 1236.5 448 L 1230.5 448 L 1229.5 449 L 1004.5 449 L 1004 448.5 L 1008.5 444 L 1027 426.5 L 1042 405.5 L 1051 387.5 L 1051 385.5 L 1053 382.5 L 1057 370.5 L 1057 367.5 L 1059 362.5 L 1059 358.5 L 1060 357.5 L 1060 353.5 L 1061 352.5 L 1061 344.5 L 1062 343.5 L 1062 303 Z " /><path fill="rgb(0,0,0)" stroke="rgb(0,0,0)" stroke-width="1" opacity="0" d="M 800 522 L 1222.5 522 L 1223.5 523 L 1230.5 523 Q 1231.5 525 1235.5 524 L 1250.5 529 Q 1265.45 536.05 1276 547.5 L 1285 559.5 L 1292 573.5 L 1294 579.5 L 1294 582.5 L 1295 583.5 L 1295 587.5 L 1296 588.5 L 1296 597.5 Q 1298 598.5 1297 602.5 L 1296 603.5 L 1296 612.5 Q 1294 613.5 1295 617.5 L 1290 632.5 L 1284 643.5 L 1269.5 660 L 1258.5 668 L 1246.5 674 L 1240.5 676 L 1237.5 676 L 1236.5 677 L 1233.5 677 L 1232.5 678 L 1226.5 678 L 1225.5 679 L 800 679 L 800 522 Z " /><path fill="rgb(0,91,187)" stroke="rgb(0,91,187)" stroke-width="1" opacity="0.43529411764705883" d="M 478.5 0 L 479 73 L 384 72.5 L 478 72 L 478.5 0 Z " /><path fill="rgb(0,91,187)" stroke="rgb(0,91,187)" stroke-width="1" opacity="0.43529411764705883" d="M 0.5 72 L 95 72.5 L 0.5 73 L 0.5 72 Z " /><path fill="rgb(0,91,187)" stroke="rgb(0,91,187)" stroke-width="1" opacity="0.43529411764705883" d="M 799.5 72 L 894 72.5 L 799.5 73 L 799.5 72 Z " /><path fill="rgb(0,91,187)" stroke="rgb(0,91,187)" stroke-width="1" opacity="0.43529411764705883" d="M 1087.5 72 L 1182 72.5 L 1087.5 73 L 1087.5 72 Z " /><path fill="rgb(0,91,187)" stroke="rgb(0,91,187)" stroke-width="1" opacity="0.43529411764705883" d="M 99.5 73 L 102 73.5 L 99.5 74 L 99.5 73 Z " /><path fill="rgb(0,91,187)" stroke="rgb(0,91,187)" stroke-width="1" opacity="0.43529411764705883" d="M 377.5 73 L 380 73.5 L 377.5 74 L 377.5 73 Z " /><path fill="rgb(0,91,187)" stroke="rgb(0,91,187)" stroke-width="1" opacity="0.43529411764705883" d="M 898.5 73 L 901 73.5 L 898.5 74 L 898.5 73 Z " /><path fill="rgb(0,91,187)" stroke="rgb(0,91,187)" stroke-width="1" opacity="0.43529411764705883" d="M 1080.5 73 L 1084 73.5 L 1080.5 74 L 1080.5 73 Z " /><path fill="rgb(0,91,187)" stroke="rgb(0,91,187)" stroke-width="1" opacity="0.43529411764705883" d="M 103.5 74 L 105 74.5 L 103.5 75 L 103.5 74 Z " /><path fill="rgb(0,91,187)" stroke="rgb(0,91,187)" stroke-width="1" opacity="0.43529411764705883" d="M 374.5 74 L 376 74.5 L 374.5 75 L 374.5 74 Z " /><path fill="rgb(0,91,187)" stroke="rgb(0,91,187)" stroke-width="1" opacity="0.43529411764705883" d="M 902.5 74 L 904 74.5 L 902.5 75 L 902.5 74 Z " /><path fill="rgb(0,91,187)" stroke="rgb(0,91,187)" stroke-width="1" opacity="0.43529411764705883" d="M 1077.5 74 L 1079 74.5 L 1069 80.5 L 1066.5 84 L 1066 83.5 L 1068 81.5 L 1070.5 78 L 1077.5 74 Z " /><path fill="rgb(0,91,187)" stroke="rgb(0,91,187)" stroke-width="1" opacity="0.43529411764705883" d="M 106.5 75 L 106.5 76 L 106.5 75 Z " /><path fill="rgb(0,91,187)" stroke="rgb(0,91,187)" stroke-width="1" opacity="0.43529411764705883" d="M 371.5 75 L 373 75.5 L 370.5 77 Q 369 76 371.5 75 Z " /><path fill="rgb(0,91,187)" stroke="rgb(0,91,187)" stroke-width="1" opacity="0.43529411764705883" d="M 905.5 75 L 905.5 76 L 905.5 75 Z " /><path fill="rgb(0,91,187)" stroke="rgb(0,91,187)" stroke-width="1" opacity="0.43529411764705883" d="M 108.5 76 Q 111 77 109.5 78 Q 107 77 108.5 76 Z " /><path fill="rgb(0,91,187)" stroke="rgb(0,91,187)" stroke-width="1" opacity="0.43529411764705883" d="M 907.5 76 L 914 81.5 L 913.5 82 L 909.5 78 Q 905.69 77.31 907.5 76 Z " /><path fill="rgb(0,91,187)" stroke="rgb(0,91,187)" stroke-width="1" opacity="0.43529411764705883" d="M 368.5 77 L 369 77.5 L 363.5 83 L 363 82.5 L 368.5 77 Z " /><path fill="rgb(0,91,187)" stroke="rgb(0,91,187)" stroke-width="1" opacity="0.43529411764705883" d="M 111.5 78 Q 116.08 81.42 118 87.5 L 117 87.5 L 116 84.5 L 111 78.5 L 111.5 78 Z " /><path fill="rgb(0,91,187)" stroke="rgb(0,91,187)" stroke-width="1" opacity="0.43529411764705883" d="M 914.5 83 L 918 89.5 L 917 89.5 L 914 83.5 L 914.5 83 Z " /><path fill="rgb(0,91,187)" stroke="rgb(0,91,187)" stroke-width="1" opacity="0.43529411764705883" d="M 362.5 84 L 362 85.5 L 361.5 87 L 361 85.5 L 362.5 84 Z " /><path fill="rgb(0,91,187)" stroke="rgb(0,91,187)" stroke-width="1" opacity="0.43529411764705883" d="M 1065.5 85 L 1065.5 86 L 1065.5 85 Z " /><path fill="rgb(0,91,187)" stroke="rgb(0,91,187)" stroke-width="1" opacity="0.43529411764705883" d="M 1064.5 87 L 1065 88.5 L 1063.5 92 L 1063 89.5 L 1064.5 87 Z " /><path fill="rgb(0,91,187)" stroke="rgb(0,91,187)" stroke-width="1" opacity="0.43529411764705883" d="M 360.5 88 L 361 89.5 L 359.5 93 L 359 90.5 L 360.5 88 Z " /><path fill="rgb(0,91,187)" stroke="rgb(0,91,187)" stroke-width="1" opacity="0.43529411764705883" d="M 118.5 89 L 119 90.5 L 118 90.5 L 118.5 89 Z " /><path fill="rgb(0,91,187)" stroke="rgb(0,91,187)" stroke-width="1" opacity="0.43529411764705883" d="M 119.5 92 L 120 95.5 L 119 95.5 L 119.5 92 Z " /><path fill="rgb(0,91,187)" stroke="rgb(0,91,187)" stroke-width="1" opacity="0.43529411764705883" d="M 918.5 92 L 919 94.5 L 918 94.5 L 918.5 92 Z " /><path fill="rgb(0,91,187)" stroke="rgb(0,91,187)" stroke-width="1" opacity="0.43529411764705883" d="M 1062.5 93 L 1063 96.5 L 1062 96.5 L 1062.5 93 Z " /><path fill="rgb(0,91,187)" stroke="rgb(0,91,187)" stroke-width="1" opacity="0.43529411764705883" d="M 358.5 95 L 359 99.5 L 358 99.5 L 358.5 95 Z " /><path fill="rgb(0,91,187)" stroke="rgb(0,91,187)" stroke-width="1" opacity="0.43529411764705883" d="M 919.5 97 L 920 230 L 444 229.5 L 919 229 L 919.5 97 Z " /><path fill="rgb(0,91,187)" stroke="rgb(0,91,187)" stroke-width="1" opacity="0.43529411764705883" d="M 120.5 99 L 121 305.5 L 120 305.5 L 120.5 99 Z " /><path fill="rgb(0,91,187)" stroke="rgb(0,91,187)" stroke-width="1" opacity="0.43529411764705883" d="M 1061.5 103 L 1062 229 L 1361 229.5 L 1061 230 L 1061.5 103 Z " /><path fill="rgb(0,91,187)" stroke="rgb(0,91,187)" stroke-width="1" opacity="0.43529411764705883" d="M 1367.5 230 L 1373 230.5 L 1367.5 231 L 1367.5 230 Z " /><path fill="rgb(0,91,187)" stroke="rgb(0,91,187)" stroke-width="1" opacity="0.43529411764705883" d="M 1375.5 231 L 1379 231.5 L 1375.5 232 L 1375.5 231 Z " /><path fill="rgb(0,91,187)" stroke="rgb(0,91,187)" stroke-width="1" opacity="0.43529411764705883" d="M 1381.5 232 L 1385 232.5 L 1381.5 233 L 1381.5 232 Z " /><path fill="rgb(0,91,187)" stroke="rgb(0,91,187)" stroke-width="1" opacity="0.43529411764705883" d="M 1386.5 233 L 1389 233.5 L 1386.5 234 L 1386.5 233 Z " /><path fill="rgb(0,91,187)" stroke="rgb(0,91,187)" stroke-width="1" opacity="0.43529411764705883" d="M 1390.5 234 L 1393 234.5 L 1390.5 235 L 1390.5 234 Z " /><path fill="rgb(0,91,187)" stroke="rgb(0,91,187)" stroke-width="1" opacity="0.43529411764705883" d="M 1394.5 235 L 1396 235.5 L 1394.5 236 L 1394.5 235 Z " /><path fill="rgb(0,91,187)" stroke="rgb(0,91,187)" stroke-width="1" opacity="0.43529411764705883" d="M 1397.5 236 L 1405 238.5 L 1403.5 239 L 1397.5 237 L 1397.5 236 Z " /><path fill="rgb(0,91,187)" stroke="rgb(0,91,187)" stroke-width="1" opacity="0.43529411764705883" d="M 1406.5 239 L 1408 239.5 L 1406.5 240 L 1406.5 239 Z " /><path fill="rgb(0,91,187)" stroke="rgb(0,91,187)" stroke-width="1" opacity="0.43529411764705883" d="M 1409.5 240 L 1413 241.5 L 1411.5 242 L 1409 240.5 L 1409.5 240 Z " /><path fill="rgb(0,91,187)" stroke="rgb(0,91,187)" stroke-width="1" opacity="0.43529411764705883" d="M 1414.5 242 L 1414.5 243 L 1414.5 242 Z " /><path fill="rgb(0,91,187)" stroke="rgb(0,91,187)" stroke-width="1" opacity="0.43529411764705883" d="M 1416.5 243 L 1416.5 244 L 1416.5 243 Z " /><path fill="rgb(0,91,187)" stroke="rgb(0,91,187)" stroke-width="1" opacity="0.43529411764705883" d="M 1418.5 244 L 1418.5 245 L 1418.5 244 Z " /><path fill="rgb(0,91,187)" stroke="rgb(0,91,187)" stroke-width="1" opacity="0.43529411764705883" d="M 1420.5 245 L 1420.5 246 L 1420.5 245 Z " /><path fill="rgb(0,91,187)" stroke="rgb(0,91,187)" stroke-width="1" opacity="0.43529411764705883" d="M 1422.5 246 L 1422.5 247 L 1422.5 246 Z " /><path fill="rgb(0,91,187)" stroke="rgb(0,91,187)" stroke-width="1" opacity="0.43529411764705883" d="M 1424.5 247 L 1424.5 248 L 1424.5 247 Z " /><path fill="rgb(0,91,187)" stroke="rgb(0,91,187)" stroke-width="1" opacity="0.43529411764705883" d="M 1426.5 248 L 1430 250.5 L 1428.5 250 Q 1424.69 249.31 1426.5 248 Z " /><path fill="rgb(0,91,187)" stroke="rgb(0,91,187)" stroke-width="1" opacity="0.43529411764705883" d="M 1431.5 251 L 1439 256.5 L 1438.5 257 L 1436.5 255 Q 1431.92 253.83 1431.5 251 Z " /><path fill="rgb(0,91,187)" stroke="rgb(0,91,187)" stroke-width="1" opacity="0.43529411764705883" d="M 1440.5 257 L 1451 266.5 L 1450.5 267 L 1444.5 261 L 1440 257.5 L 1440.5 257 Z " /><path fill="rgb(0,91,187)" stroke="rgb(0,91,187)" stroke-width="1" opacity="0.43529411764705883" d="M 1452.5 267 L 1457 271.5 L 1456.5 272 L 1452 267.5 L 1452.5 267 Z " /><path fill="rgb(0,91,187)" stroke="rgb(0,91,187)" stroke-width="1" opacity="0.43529411764705883" d="M 1457.5 273 Q 1464.29 278.71 1469 286.5 L 1468.5 287 L 1466 284.5 Q 1462.75 277.75 1457 273.5 L 1457.5 273 Z " /><path fill="rgb(0,91,187)" stroke="rgb(0,91,187)" stroke-width="1" opacity="0.43529411764705883" d="M 1469.5 288 Q 1472 289 1470.5 290 Q 1468 289 1469.5 288 Z " /><path fill="rgb(0,91,187)" stroke="rgb(0,91,187)" stroke-width="1" opacity="0.43529411764705883" d="M 1471.5 291 L 1474 294.5 Q 1473 296 1472 293.5 L 1471.5 291 Z " /><path fill="rgb(0,91,187)" stroke="rgb(0,91,187)" stroke-width="1" opacity="0.43529411764705883" d="M 1474.5 296 L 1474.5 297 L 1474.5 296 Z " /><path fill="rgb(0,91,187)" stroke="rgb(0,91,187)" stroke-width="1" opacity="0.43529411764705883" d="M 1475.5 298 L 1475.5 299 L 1475.5 298 Z " /><path fill="rgb(0,91,187)" stroke="rgb(0,91,187)" stroke-width="1" opacity="0.43529411764705883" d="M 1476.5 300 L 1476.5 301 L 1476.5 300 Z " /><path fill="rgb(0,91,187)" stroke="rgb(0,91,187)" stroke-width="1" opacity="0.43529411764705883" d="M 799 302 L 920 302 L 920 350.5 L 919 350.5 L 919 303 L 800 303 L 799.5 450 L 799 302 Z " /><path fill="rgb(0,91,187)" stroke="rgb(0,91,187)" stroke-width="1" opacity="0.43529411764705883" d="M 1062.5 302 L 1229 302.5 L 1062 303 L 1061.5 344 L 1061 303.5 L 1062.5 302 Z " /><path fill="rgb(0,91,187)" stroke="rgb(0,91,187)" stroke-width="1" opacity="0.43529411764705883" d="M 1477.5 302 L 1477.5 303 L 1477.5 302 Z " /><path fill="rgb(0,91,187)" stroke="rgb(0,91,187)" stroke-width="1" opacity="0.43529411764705883" d="M 537.5 303 L 541 303.5 L 537.5 304 L 537.5 303 Z " /><path fill="rgb(0,91,187)" stroke="rgb(0,91,187)" stroke-width="1" opacity="0.43529411764705883" d="M 1233.5 303 L 1237 303.5 L 1233.5 304 L 1233.5 303 Z " /><path fill="rgb(0,91,187)" stroke="rgb(0,91,187)" stroke-width="1" opacity="0.43529411764705883" d="M 542.5 304 L 544 304.5 L 542.5 305 L 542.5 304 Z " /><path fill="rgb(0,91,187)" stroke="rgb(0,91,187)" stroke-width="1" opacity="0.43529411764705883" d="M 1239.5 304 L 1241 304.5 L 1239.5 305 L 1239.5 304 Z " /><path fill="rgb(0,91,187)" stroke="rgb(0,91,187)" stroke-width="1" opacity="0.43529411764705883" d="M 1478.5 304 L 1478.5 305 L 1478.5 304 Z " /><path fill="rgb(0,91,187)" stroke="rgb(0,91,187)" stroke-width="1" opacity="0.43529411764705883" d="M 545.5 305 Q 553.5 307.5 558 313.5 L 562 321.5 L 561 321.5 Q 558.89 314.11 553.5 310 L 545.5 306 L 545.5 305 Z " /><path fill="rgb(0,91,187)" stroke="rgb(0,91,187)" stroke-width="1" opacity="0.43529411764705883" d="M 1243.5 305 L 1245 305.5 L 1243.5 306 L 1243.5 305 Z " /><path fill="rgb(0,91,187)" stroke="rgb(0,91,187)" stroke-width="1" opacity="0.43529411764705883" d="M 358.5 306 L 359 315.5 L 358 315.5 L 358.5 306 Z " /><path fill="rgb(0,91,187)" stroke="rgb(0,91,187)" stroke-width="1" opacity="0.43529411764705883" d="M 1246.5 306 L 1248 306.5 L 1246.5 307 L 1246.5 306 Z " /><path fill="rgb(0,91,187)" stroke="rgb(0,91,187)" stroke-width="1" opacity="0.43529411764705883" d="M 1479.5 306 L 1481 309.5 L 1480 309.5 Q 1478.29 307.96 1479.5 306 Z " /><path fill="rgb(0,91,187)" stroke="rgb(0,91,187)" stroke-width="1" opacity="0.43529411764705883" d="M 1249.5 307 L 1253 308.5 L 1251.5 309 L 1249 307.5 L 1249.5 307 Z " /><path fill="rgb(0,91,187)" stroke="rgb(0,91,187)" stroke-width="1" opacity="0.43529411764705883" d="M 1254.5 309 L 1254.5 310 L 1254.5 309 Z " /><path fill="rgb(0,91,187)" stroke="rgb(0,91,187)" stroke-width="1" opacity="0.43529411764705883" d="M 1256.5 310 L 1256.5 311 L 1256.5 310 Z " /><path fill="rgb(0,91,187)" stroke="rgb(0,91,187)" stroke-width="1" opacity="0.43529411764705883" d="M 1258.5 311 L 1262 313.5 L 1260.5 313 Q 1256.69 312.31 1258.5 311 Z " /><path fill="rgb(0,91,187)" stroke="rgb(0,91,187)" stroke-width="1" opacity="0.43529411764705883" d="M 1481.5 311 L 1484 318.5 L 1483 318.5 L 1481 312.5 L 1481.5 311 Z " /><path fill="rgb(0,91,187)" stroke="rgb(0,91,187)" stroke-width="1" opacity="0.43529411764705883" d="M 121.5 312 L 122 317.5 L 121 317.5 L 121.5 312 Z " /><path fill="rgb(0,91,187)" stroke="rgb(0,91,187)" stroke-width="1" opacity="0.43529411764705883" d="M 1263.5 314 Q 1266 315 1264.5 316 Q 1262 315 1263.5 314 Z " /><path fill="rgb(0,91,187)" stroke="rgb(0,91,187)" stroke-width="1" opacity="0.43529411764705883" d="M 1266.5 316 L 1269 318.5 L 1268.5 319 L 1266 316.5 L 1266.5 316 Z " /><path fill="rgb(0,91,187)" stroke="rgb(0,91,187)" stroke-width="1" opacity="0.43529411764705883" d="M 1270.5 319 Q 1280.55 326.95 1287 338.5 Q 1286 340 1285 337.5 L 1280 329.5 L 1270 319.5 L 1270.5 319 Z " /><path fill="rgb(0,91,187)" stroke="rgb(0,91,187)" stroke-width="1" opacity="0.43529411764705883" d="M 1484.5 320 L 1485 321.5 L 1484 321.5 L 1484.5 320 Z " /><path fill="rgb(0,91,187)" stroke="rgb(0,91,187)" stroke-width="1" opacity="0.43529411764705883" d="M 122.5 321 L 123 325.5 L 122 325.5 L 122.5 321 Z " /><path fill="rgb(0,91,187)" stroke="rgb(0,91,187)" stroke-width="1" opacity="0.43529411764705883" d="M 359.5 321 L 360 325.5 L 359 325.5 L 359.5 321 Z " /><path fill="rgb(0,91,187)" stroke="rgb(0,91,187)" stroke-width="1" opacity="0.43529411764705883" d="M 562.5 323 L 563 325.5 L 562 325.5 L 562.5 323 Z " /><path fill="rgb(0,91,187)" stroke="rgb(0,91,187)" stroke-width="1" opacity="0.43529411764705883" d="M 1485.5 323 L 1486 325.5 L 1485 325.5 L 1485.5 323 Z " /><path fill="rgb(0,91,187)" stroke="rgb(0,91,187)" stroke-width="1" opacity="0.43529411764705883" d="M 1486.5 327 L 1487 329.5 L 1486 329.5 L 1486.5 327 Z " /><path fill="rgb(0,91,187)" stroke="rgb(0,91,187)" stroke-width="1" opacity="0.43529411764705883" d="M 123.5 328 L 124 330.5 L 123 330.5 L 123.5 328 Z " /><path fill="rgb(0,91,187)" stroke="rgb(0,91,187)" stroke-width="1" opacity="0.43529411764705883" d="M 563.5 328 L 564 334.5 L 563 334.5 L 563.5 328 Z " /><path fill="rgb(0,91,187)" stroke="rgb(0,91,187)" stroke-width="1" opacity="0.43529411764705883" d="M 360.5 329 L 361 332.5 L 360 332.5 L 360.5 329 Z " /><path fill="rgb(0,91,187)" stroke="rgb(0,91,187)" stroke-width="1" opacity="0.43529411764705883" d="M 1487.5 332 L 1488 335.5 L 1487 335.5 L 1487.5 332 Z " /><path fill="rgb(0,91,187)" stroke="rgb(0,91,187)" stroke-width="1" opacity="0.43529411764705883" d="M 124.5 333 L 125 335.5 L 124 335.5 L 124.5 333 Z " /><path fill="rgb(0,91,187)" stroke="rgb(0,91,187)" stroke-width="1" opacity="0.43529411764705883" d="M 361.5 335 L 362 338.5 L 361 338.5 L 361.5 335 Z " /><path fill="rgb(0,91,187)" stroke="rgb(0,91,187)" stroke-width="1" opacity="0.43529411764705883" d="M 125.5 338 L 126 340.5 L 125 340.5 L 125.5 338 Z " /><path fill="rgb(0,91,187)" stroke="rgb(0,91,187)" stroke-width="1" opacity="0.43529411764705883" d="M 1488.5 339 L 1489 343.5 L 1488 343.5 L 1488.5 339 Z " /><path fill="rgb(0,91,187)" stroke="rgb(0,91,187)" stroke-width="1" opacity="0.43529411764705883" d="M 362.5 340 L 363 342.5 L 362 342.5 L 362.5 340 Z " /><path fill="rgb(0,91,187)" stroke="rgb(0,91,187)" stroke-width="1" opacity="0.43529411764705883" d="M 1287.5 340 L 1287.5 341 L 1287.5 340 Z " /><path fill="rgb(0,91,187)" stroke="rgb(0,91,187)" stroke-width="1" opacity="0.43529411764705883" d="M 126.5 342 L 127 344.5 L 126 344.5 L 126.5 342 Z " /><path fill="rgb(0,91,187)" stroke="rgb(0,91,187)" stroke-width="1" opacity="0.43529411764705883" d="M 1288.5 342 L 1288.5 343 L 1288.5 342 Z " /><path fill="rgb(0,91,187)" stroke="rgb(0,91,187)" stroke-width="1" opacity="0.43529411764705883" d="M 1289.5 344 L 1289.5 345 L 1289.5 344 Z " /><path fill="rgb(0,91,187)" stroke="rgb(0,91,187)" stroke-width="1" opacity="0.43529411764705883" d="M 363.5 345 L 364 347.5 L 363 347.5 L 363.5 345 Z " /><path fill="rgb(0,91,187)" stroke="rgb(0,91,187)" stroke-width="1" opacity="0.43529411764705883" d="M 127.5 346 L 128 347.5 L 127 347.5 L 127.5 346 Z " /><path fill="rgb(0,91,187)" stroke="rgb(0,91,187)" stroke-width="1" opacity="0.43529411764705883" d="M 1290.5 346 L 1290.5 347 L 1290.5 346 Z " /><path fill="rgb(0,91,187)" stroke="rgb(0,91,187)" stroke-width="1" opacity="0.43529411764705883" d="M 1060.5 348 L 1061 352.5 L 1060 352.5 L 1060.5 348 Z " /><path fill="rgb(0,91,187)" stroke="rgb(0,91,187)" stroke-width="1" opacity="0.43529411764705883" d="M 1291.5 348 L 1293 351.5 L 1292 351.5 Q 1290.29 349.96 1291.5 348 Z " /><path fill="rgb(0,91,187)" stroke="rgb(0,91,187)" stroke-width="1" opacity="0.43529411764705883" d="M 128.5 349 L 132 359.5 L 131 359.5 L 128 351.5 L 128.5 349 Z " /><path fill="rgb(0,91,187)" stroke="rgb(0,91,187)" stroke-width="1" opacity="0.43529411764705883" d="M 364.5 349 L 365 350.5 L 364 350.5 L 364.5 349 Z " /><path fill="rgb(0,91,187)" stroke="rgb(0,91,187)" stroke-width="1" opacity="0.43529411764705883" d="M 1489.5 351 L 1490 360.5 L 1489 360.5 L 1489.5 351 Z " /><path fill="rgb(0,91,187)" stroke="rgb(0,91,187)" stroke-width="1" opacity="0.43529411764705883" d="M 365.5 352 L 366 353.5 L 365 353.5 L 365.5 352 Z " /><path fill="rgb(0,91,187)" stroke="rgb(0,91,187)" stroke-width="1" opacity="0.43529411764705883" d="M 1293.5 353 L 1294 355.5 L 1293 355.5 L 1293.5 353 Z " /><path fill="rgb(0,91,187)" stroke="rgb(0,91,187)" stroke-width="1" opacity="0.43529411764705883" d="M 366.5 355 L 368 359.5 L 367 359.5 Q 365.25 357.75 366.5 355 Z " /><path fill="rgb(0,91,187)" stroke="rgb(0,91,187)" stroke-width="1" opacity="0.43529411764705883" d="M 918.5 355 L 919 359.5 L 918 359.5 L 918.5 355 Z " /><path fill="rgb(0,91,187)" stroke="rgb(0,91,187)" stroke-width="1" opacity="0.43529411764705883" d="M 1059.5 355 L 1060 357.5 L 1059 357.5 L 1059.5 355 Z " /><path fill="rgb(0,91,187)" stroke="rgb(0,91,187)" stroke-width="1" opacity="0.43529411764705883" d="M 1294.5 357 L 1295 358.5 L 1294 358.5 L 1294.5 357 Z " /><path fill="rgb(0,91,187)" stroke="rgb(0,91,187)" stroke-width="1" opacity="0.43529411764705883" d="M 1058.5 360 L 1059 362.5 L 1058 362.5 L 1058.5 360 Z " /><path fill="rgb(0,91,187)" stroke="rgb(0,91,187)" stroke-width="1" opacity="0.43529411764705883" d="M 132.5 361 L 133 362.5 L 132 362.5 L 132.5 361 Z " /><path fill="rgb(0,91,187)" stroke="rgb(0,91,187)" stroke-width="1" opacity="0.43529411764705883" d="M 368.5 361 L 370 364.5 L 369 364.5 L 368.5 361 Z " /><path fill="rgb(0,91,187)" stroke="rgb(0,91,187)" stroke-width="1" opacity="0.43529411764705883" d="M 1295.5 361 L 1296 363.5 L 1295 363.5 L 1295.5 361 Z " /><path fill="rgb(0,91,187)" stroke="rgb(0,91,187)" stroke-width="1" opacity="0.43529411764705883" d="M 917.5 362 L 918 364.5 L 917 364.5 L 917.5 362 Z " /><path fill="rgb(0,91,187)" stroke="rgb(0,91,187)" stroke-width="1" opacity="0.43529411764705883" d="M 133.5 364 L 135 367.5 L 134 367.5 L 133.5 364 Z " /><path fill="rgb(0,91,187)" stroke="rgb(0,91,187)" stroke-width="1" opacity="0.43529411764705883" d="M 1057.5 365 L 1058 366.5 L 1057 366.5 L 1057.5 365 Z " /><path fill="rgb(0,91,187)" stroke="rgb(0,91,187)" stroke-width="1" opacity="0.43529411764705883" d="M 370.5 366 L 376 376.5 Q 375 378 374 375.5 L 370 367.5 L 370.5 366 Z " /><path fill="rgb(0,91,187)" stroke="rgb(0,91,187)" stroke-width="1" opacity="0.43529411764705883" d="M 916.5 367 L 917 369.5 L 916 369.5 L 916.5 367 Z " /><path fill="rgb(0,91,187)" stroke="rgb(0,91,187)" stroke-width="1" opacity="0.43529411764705883" d="M 1296.5 367 L 1297 383.5 L 1296 383.5 L 1296.5 367 Z " /><path fill="rgb(0,91,187)" stroke="rgb(0,91,187)" stroke-width="1" opacity="0.43529411764705883" d="M 1056.5 368 L 1057 370.5 L 1056 370.5 L 1056.5 368 Z " /><path fill="rgb(0,91,187)" stroke="rgb(0,91,187)" stroke-width="1" opacity="0.43529411764705883" d="M 1488.5 368 L 1489 372.5 L 1488 372.5 L 1488.5 368 Z " /><path fill="rgb(0,91,187)" stroke="rgb(0,91,187)" stroke-width="1" opacity="0.43529411764705883" d="M 135.5 369 L 135.5 370 L 135.5 369 Z " /><path fill="rgb(0,91,187)" stroke="rgb(0,91,187)" stroke-width="1" opacity="0.43529411764705883" d="M 136.5 371 L 136.5 372 L 136.5 371 Z " /><path fill="rgb(0,91,187)" stroke="rgb(0,91,187)" stroke-width="1" opacity="0.43529411764705883" d="M 915.5 371 L 916 372.5 L 915 372.5 L 915.5 371 Z " /><path fill="rgb(0,91,187)" stroke="rgb(0,91,187)" stroke-width="1" opacity="0.43529411764705883" d="M 1055.5 372 L 1056 373.5 L 1055 373.5 L 1055.5 372 Z " /><path fill="rgb(0,91,187)" stroke="rgb(0,91,187)" stroke-width="1" opacity="0.43529411764705883" d="M 137.5 373 L 141 379.5 Q 140 381 139 378.5 L 137 374.5 L 137.5 373 Z " /><path fill="rgb(0,91,187)" stroke="rgb(0,91,187)" stroke-width="1" opacity="0.43529411764705883" d="M 914.5 374 L 915 376.5 L 912.5 382 L 912 380.5 L 914.5 374 Z " /><path fill="rgb(0,91,187)" stroke="rgb(0,91,187)" stroke-width="1" opacity="0.43529411764705883" d="M 1054.5 375 L 1055 376.5 L 1054 376.5 L 1054.5 375 Z " /><path fill="rgb(0,91,187)" stroke="rgb(0,91,187)" stroke-width="1" opacity="0.43529411764705883" d="M 1487.5 376 L 1488 378.5 L 1487 378.5 L 1487.5 376 Z " /><path fill="rgb(0,91,187)" stroke="rgb(0,91,187)" stroke-width="1" opacity="0.43529411764705883" d="M 376.5 378 L 376.5 379 L 376.5 378 Z " /><path fill="rgb(0,91,187)" stroke="rgb(0,91,187)" stroke-width="1" opacity="0.43529411764705883" d="M 1053.5 378 L 1054 379.5 L 1053 379.5 L 1053.5 378 Z " /><path fill="rgb(0,91,187)" stroke="rgb(0,91,187)" stroke-width="1" opacity="0.43529411764705883" d="M 377.5 380 Q 380 381 378.5 382 Q 376 381 377.5 380 Z " /><path fill="rgb(0,91,187)" stroke="rgb(0,91,187)" stroke-width="1" opacity="0.43529411764705883" d="M 141.5 381 L 141.5 382 L 141.5 381 Z " /><path fill="rgb(0,91,187)" stroke="rgb(0,91,187)" stroke-width="1" opacity="0.43529411764705883" d="M 1052.5 381 L 1053 382.5 L 1051.5 385 L 1051 383.5 L 1052.5 381 Z " /><path fill="rgb(0,91,187)" stroke="rgb(0,91,187)" stroke-width="1" opacity="0.43529411764705883" d="M 1486.5 381 L 1487 383.5 L 1486 383.5 L 1486.5 381 Z " /><path fill="rgb(0,91,187)" stroke="rgb(0,91,187)" stroke-width="1" opacity="0.43529411764705883" d="M 142.5 383 L 148 391.5 Q 147 393 146 390.5 L 142 383.5 L 142.5 383 Z " /><path fill="rgb(0,91,187)" stroke="rgb(0,91,187)" stroke-width="1" opacity="0.43529411764705883" d="M 379.5 383 Q 382 384 380.5 385 Q 378 384 379.5 383 Z " /><path fill="rgb(0,91,187)" stroke="rgb(0,91,187)" stroke-width="1" opacity="0.43529411764705883" d="M 911.5 383 L 912 384.5 L 910.5 387 L 910 385.5 L 911.5 383 Z " /><path fill="rgb(0,91,187)" stroke="rgb(0,91,187)" stroke-width="1" opacity="0.43529411764705883" d="M 1485.5 385 L 1486 387.5 L 1485 387.5 L 1485.5 385 Z " /><path fill="rgb(0,91,187)" stroke="rgb(0,91,187)" stroke-width="1" opacity="0.43529411764705883" d="M 381.5 386 L 387 392.5 L 386.5 393 L 383 389.5 L 381 386.5 L 381.5 386 Z " /><path fill="rgb(0,91,187)" stroke="rgb(0,91,187)" stroke-width="1" opacity="0.43529411764705883" d="M 1050.5 386 L 1051 387.5 L 1049.5 390 L 1049 388.5 L 1050.5 386 Z " /><path fill="rgb(0,91,187)" stroke="rgb(0,91,187)" stroke-width="1" opacity="0.43529411764705883" d="M 1295.5 387 L 1296 390.5 L 1295 390.5 L 1295.5 387 Z " /><path fill="rgb(0,91,187)" stroke="rgb(0,91,187)" stroke-width="1" opacity="0.43529411764705883" d="M 909.5 388 L 909.5 389 L 909.5 388 Z " /><path fill="rgb(0,91,187)" stroke="rgb(0,91,187)" stroke-width="1" opacity="0.43529411764705883" d="M 1484.5 389 L 1485 391.5 L 1484 391.5 L 1484.5 389 Z " /><path fill="rgb(0,91,187)" stroke="rgb(0,91,187)" stroke-width="1" opacity="0.43529411764705883" d="M 908.5 390 L 908.5 391 L 908.5 390 Z " /><path fill="rgb(0,91,187)" stroke="rgb(0,91,187)" stroke-width="1" opacity="0.43529411764705883" d="M 1048.5 391 L 1048.5 392 L 1048.5 391 Z " /><path fill="rgb(0,91,187)" stroke="rgb(0,91,187)" stroke-width="1" opacity="0.43529411764705883" d="M 907.5 392 L 907.5 393 L 907.5 392 Z " /><path fill="rgb(0,91,187)" stroke="rgb(0,91,187)" stroke-width="1" opacity="0.43529411764705883" d="M 1294.5 392 L 1295 394.5 L 1294 394.5 L 1294.5 392 Z " /><path fill="rgb(0,91,187)" stroke="rgb(0,91,187)" stroke-width="1" opacity="0.43529411764705883" d="M 148.5 393 Q 151 394 149.5 395 Q 147 394 148.5 393 Z " /><path fill="rgb(0,91,187)" stroke="rgb(0,91,187)" stroke-width="1" opacity="0.43529411764705883" d="M 1047.5 393 L 1047.5 394 L 1047.5 393 Z " /><path fill="rgb(0,91,187)" stroke="rgb(0,91,187)" stroke-width="1" opacity="0.43529411764705883" d="M 1483.5 393 L 1484 394.5 L 1483 394.5 L 1483.5 393 Z " /><path fill="rgb(0,91,187)" stroke="rgb(0,91,187)" stroke-width="1" opacity="0.43529411764705883" d="M 387.5 394 L 401 407.5 L 400.5 408 L 387 394.5 L 387.5 394 Z " /><path fill="rgb(0,91,187)" stroke="rgb(0,91,187)" stroke-width="1" opacity="0.43529411764705883" d="M 906.5 394 L 906.5 395 L 906.5 394 Z " /><path fill="rgb(0,91,187)" stroke="rgb(0,91,187)" stroke-width="1" opacity="0.43529411764705883" d="M 1046.5 395 L 1046.5 396 L 1046.5 395 Z " /><path fill="rgb(0,91,187)" stroke="rgb(0,91,187)" stroke-width="1" opacity="0.43529411764705883" d="M 150.5 396 L 155 401.5 L 154.5 402 L 152 399.5 L 150 396.5 L 150.5 396 Z " /><path fill="rgb(0,91,187)" stroke="rgb(0,91,187)" stroke-width="1" opacity="0.43529411764705883" d="M 905.5 396 L 905 397.5 L 903.5 400 L 904 398.5 L 905.5 396 Z " /><path fill="rgb(0,91,187)" stroke="rgb(0,91,187)" stroke-width="1" opacity="0.43529411764705883" d="M 1293.5 396 L 1294 397.5 L 1293 397.5 L 1293.5 396 Z " /><path fill="rgb(0,91,187)" stroke="rgb(0,91,187)" stroke-width="1" opacity="0.43529411764705883" d="M 1482.5 396 L 1483 397.5 L 1482 397.5 L 1482.5 396 Z " /><path fill="rgb(0,91,187)" stroke="rgb(0,91,187)" stroke-width="1" opacity="0.43529411764705883" d="M 1045.5 397 L 1045.5 398 L 1045.5 397 Z " /><path fill="rgb(0,91,187)" stroke="rgb(0,91,187)" stroke-width="1" opacity="0.43529411764705883" d="M 1044.5 399 L 1044.5 400 L 1044.5 399 Z " /><path fill="rgb(0,91,187)" stroke="rgb(0,91,187)" stroke-width="1" opacity="0.43529411764705883" d="M 1292.5 399 L 1293 400.5 L 1292 400.5 L 1292.5 399 Z " /><path fill="rgb(0,91,187)" stroke="rgb(0,91,187)" stroke-width="1" opacity="0.43529411764705883" d="M 1481.5 399 L 1482 400.5 L 1480.5 403 L 1480 401.5 L 1481.5 399 Z " /><path fill="rgb(0,91,187)" stroke="rgb(0,91,187)" stroke-width="1" opacity="0.43529411764705883" d="M 902.5 401 Q 904 402 901.5 403 Q 900 402 902.5 401 Z " /><path fill="rgb(0,91,187)" stroke="rgb(0,91,187)" stroke-width="1" opacity="0.43529411764705883" d="M 1043.5 401 L 1043 402.5 L 1040.5 407 L 1041 405.5 L 1043.5 401 Z " /><path fill="rgb(0,91,187)" stroke="rgb(0,91,187)" stroke-width="1" opacity="0.43529411764705883" d="M 1291.5 402 L 1292 403.5 L 1290.5 406 L 1290 404.5 L 1291.5 402 Z " /><path fill="rgb(0,91,187)" stroke="rgb(0,91,187)" stroke-width="1" opacity="0.43529411764705883" d="M 155.5 403 Q 166.08 416.92 179 428.5 L 178.5 429 L 164 414.5 L 155 403.5 L 155.5 403 Z " /><path fill="rgb(0,91,187)" stroke="rgb(0,91,187)" stroke-width="1" opacity="0.43529411764705883" d="M 900.5 404 L 901 404.5 L 899 406.5 Q 893.3 416.3 884.5 423 L 884 422.5 L 894 412.5 L 900.5 404 Z " /><path fill="rgb(0,91,187)" stroke="rgb(0,91,187)" stroke-width="1" opacity="0.43529411764705883" d="M 1479.5 404 L 1480 405.5 L 1478.5 408 L 1478 406.5 L 1479.5 404 Z " /><path fill="rgb(0,91,187)" stroke="rgb(0,91,187)" stroke-width="1" opacity="0.43529411764705883" d="M 1289.5 407 L 1289.5 408 L 1289.5 407 Z " /><path fill="rgb(0,91,187)" stroke="rgb(0,91,187)" stroke-width="1" opacity="0.43529411764705883" d="M 402.5 408 L 406 411.5 L 405.5 412 L 402 408.5 L 402.5 408 Z " /><path fill="rgb(0,91,187)" stroke="rgb(0,91,187)" stroke-width="1" opacity="0.43529411764705883" d="M 1039.5 408 Q 1041 409 1038.5 410 Q 1037 409 1039.5 408 Z " /><path fill="rgb(0,91,187)" stroke="rgb(0,91,187)" stroke-width="1" opacity="0.43529411764705883" d="M 1288.5 409 L 1288.5 410 L 1288.5 409 Z " /><path fill="rgb(0,91,187)" stroke="rgb(0,91,187)" stroke-width="1" opacity="0.43529411764705883" d="M 1477.5 409 L 1477.5 410 L 1477.5 409 Z " /><path fill="rgb(0,91,187)" stroke="rgb(0,91,187)" stroke-width="1" opacity="0.43529411764705883" d="M 1037.5 411 Q 1039 412 1036.5 413 Q 1035 412 1037.5 411 Z " /><path fill="rgb(0,91,187)" stroke="rgb(0,91,187)" stroke-width="1" opacity="0.43529411764705883" d="M 1287.5 411 L 1287 412.5 L 1285.5 415 L 1286 413.5 L 1287.5 411 Z " /><path fill="rgb(0,91,187)" stroke="rgb(0,91,187)" stroke-width="1" opacity="0.43529411764705883" d="M 1476.5 411 L 1476.5 412 L 1476.5 411 Z " /><path fill="rgb(0,91,187)" stroke="rgb(0,91,187)" stroke-width="1" opacity="0.43529411764705883" d="M 407.5 412 L 418 419.5 L 416.5 419 L 409.5 415 L 407 412.5 L 407.5 412 Z " /><path fill="rgb(0,91,187)" stroke="rgb(0,91,187)" stroke-width="1" opacity="0.43529411764705883" d="M 1475.5 413 L 1475.5 414 L 1475.5 413 Z " /><path fill="rgb(0,91,187)" stroke="rgb(0,91,187)" stroke-width="1" opacity="0.43529411764705883" d="M 1035.5 414 Q 1037 415 1034.5 416 Q 1033 415 1035.5 414 Z " /><path fill="rgb(0,91,187)" stroke="rgb(0,91,187)" stroke-width="1" opacity="0.43529411764705883" d="M 1474.5 415 L 1474.5 416 L 1474.5 415 Z " /><path fill="rgb(0,91,187)" stroke="rgb(0,91,187)" stroke-width="1" opacity="0.43529411764705883" d="M 1284.5 416 L 1285 416.5 L 1283 418.5 Q 1278.9 425.9 1272.5 431 L 1272 430.5 L 1278 424.5 L 1284.5 416 Z " /><path fill="rgb(0,91,187)" stroke="rgb(0,91,187)" stroke-width="1" opacity="0.43529411764705883" d="M 1033.5 417 L 1034 417.5 L 1031.5 420 L 1031 419.5 L 1033.5 417 Z " /><path fill="rgb(0,91,187)" stroke="rgb(0,91,187)" stroke-width="1" opacity="0.43529411764705883" d="M 1473.5 417 L 1473 418.5 L 1471.5 421 L 1472 419.5 L 1473.5 417 Z " /><path fill="rgb(0,91,187)" stroke="rgb(0,91,187)" stroke-width="1" opacity="0.43529411764705883" d="M 419.5 420 L 425 423.5 L 423.5 423 Q 419.5 422.5 419.5 420 Z " /><path fill="rgb(0,91,187)" stroke="rgb(0,91,187)" stroke-width="1" opacity="0.43529411764705883" d="M 1030.5 421 L 1031 421.5 L 1027 425.5 L 1009.5 444 L 1009 443.5 L 1026 426.5 L 1030.5 421 Z " /><path fill="rgb(0,91,187)" stroke="rgb(0,91,187)" stroke-width="1" opacity="0.43529411764705883" d="M 1470.5 422 L 1470 423.5 L 1465.5 430 L 1465 429.5 L 1467 427.5 L 1470.5 422 Z " /><path fill="rgb(0,91,187)" stroke="rgb(0,91,187)" stroke-width="1" opacity="0.43529411764705883" d="M 882.5 423 L 883 423.5 L 879.5 427 L 879 426.5 L 882.5 423 Z " /><path fill="rgb(0,91,187)" stroke="rgb(0,91,187)" stroke-width="1" opacity="0.43529411764705883" d="M 426.5 424 L 426.5 425 L 426.5 424 Z " /><path fill="rgb(0,91,187)" stroke="rgb(0,91,187)" stroke-width="1" opacity="0.43529411764705883" d="M 428.5 425 L 428.5 426 L 428.5 425 Z " /><path fill="rgb(0,91,187)" stroke="rgb(0,91,187)" stroke-width="1" opacity="0.43529411764705883" d="M 430.5 426 L 438 429.5 L 436.5 430 L 430.5 427 L 430.5 426 Z " /><path fill="rgb(0,91,187)" stroke="rgb(0,91,187)" stroke-width="1" opacity="0.43529411764705883" d="M 877.5 427 L 878 427.5 L 875.5 430 L 870.5 433 Q 869 432 871.5 431 L 877.5 427 Z " /><path fill="rgb(0,91,187)" stroke="rgb(0,91,187)" stroke-width="1" opacity="0.43529411764705883" d="M 180.5 429 L 186 434.5 L 185.5 435 L 180 429.5 L 180.5 429 Z " /><path fill="rgb(0,91,187)" stroke="rgb(0,91,187)" stroke-width="1" opacity="0.43529411764705883" d="M 439.5 430 L 443 431.5 L 441.5 432 L 439 430.5 L 439.5 430 Z " /><path fill="rgb(0,91,187)" stroke="rgb(0,91,187)" stroke-width="1" opacity="0.43529411764705883" d="M 1270.5 431 L 1271 431.5 L 1267.5 435 L 1267 434.5 L 1270.5 431 Z " /><path fill="rgb(0,91,187)" stroke="rgb(0,91,187)" stroke-width="1" opacity="0.43529411764705883" d="M 1464.5 431 L 1465 431.5 L 1462 434.5 L 1455.5 442 L 1455 441.5 L 1461 435.5 L 1464.5 431 Z " /><path fill="rgb(0,91,187)" stroke="rgb(0,91,187)" stroke-width="1" opacity="0.43529411764705883" d="M 444.5 432 L 451 434.5 L 449.5 435 L 444.5 433 L 444.5 432 Z " /><path fill="rgb(0,91,187)" stroke="rgb(0,91,187)" stroke-width="1" opacity="0.43529411764705883" d="M 868.5 433 L 868.5 434 L 868.5 433 Z " /><path fill="rgb(0,91,187)" stroke="rgb(0,91,187)" stroke-width="1" opacity="0.43529411764705883" d="M 866.5 434 Q 868 435 865.5 436 L 858.5 439 L 858.5 438 L 866.5 434 Z " /><path fill="rgb(0,91,187)" stroke="rgb(0,91,187)" stroke-width="1" opacity="0.43529411764705883" d="M 187.5 435 L 191 438.5 L 190.5 439 L 187 435.5 L 187.5 435 Z " /><path fill="rgb(0,91,187)" stroke="rgb(0,91,187)" stroke-width="1" opacity="0.43529411764705883" d="M 452.5 435 L 458 436.5 L 455.5 437 L 452.5 436 L 452.5 435 Z " /><path fill="rgb(0,91,187)" stroke="rgb(0,91,187)" stroke-width="1" opacity="0.43529411764705883" d="M 1265.5 435 Q 1267 436 1264.5 437 Q 1263 436 1265.5 435 Z " /><path fill="rgb(0,91,187)" stroke="rgb(0,91,187)" stroke-width="1" opacity="0.43529411764705883" d="M 459.5 437 L 461 437.5 L 459.5 438 L 459.5 437 Z " /><path fill="rgb(0,91,187)" stroke="rgb(0,91,187)" stroke-width="1" opacity="0.43529411764705883" d="M 1262.5 437 Q 1264 438 1261.5 439 Q 1260 438 1262.5 437 Z " /><path fill="rgb(0,91,187)" stroke="rgb(0,91,187)" stroke-width="1" opacity="0.43529411764705883" d="M 462.5 438 L 465 438.5 L 462.5 439 L 462.5 438 Z " /><path fill="rgb(0,91,187)" stroke="rgb(0,91,187)" stroke-width="1" opacity="0.43529411764705883" d="M 192.5 439 L 195 441.5 L 194.5 442 L 192 439.5 L 192.5 439 Z " /><path fill="rgb(0,91,187)" stroke="rgb(0,91,187)" stroke-width="1" opacity="0.43529411764705883" d="M 466.5 439 L 469 439.5 L 466.5 440 L 466.5 439 Z " /><path fill="rgb(0,91,187)" stroke="rgb(0,91,187)" stroke-width="1" opacity="0.43529411764705883" d="M 856.5 439 L 856.5 440 L 856.5 439 Z " /><path fill="rgb(0,91,187)" stroke="rgb(0,91,187)" stroke-width="1" opacity="0.43529411764705883" d="M 1259.5 439 L 1259.5 440 L 1259.5 439 Z " /><path fill="rgb(0,91,187)" stroke="rgb(0,91,187)" stroke-width="1" opacity="0.43529411764705883" d="M 470.5 440 L 473 440.5 L 470.5 441 L 470.5 440 Z " /><path fill="rgb(0,91,187)" stroke="rgb(0,91,187)" stroke-width="1" opacity="0.43529411764705883" d="M 853.5 440 L 855 440.5 L 853.5 441 L 853.5 440 Z " /><path fill="rgb(0,91,187)" stroke="rgb(0,91,187)" stroke-width="1" opacity="0.43529411764705883" d="M 1257.5 440 Q 1259 441 1256.5 442 L 1255 441.5 L 1257.5 440 Z " /><path fill="rgb(0,91,187)" stroke="rgb(0,91,187)" stroke-width="1" opacity="0.43529411764705883" d="M 474.5 441 L 477 441.5 L 474.5 442 L 474.5 441 Z " /><path fill="rgb(0,91,187)" stroke="rgb(0,91,187)" stroke-width="1" opacity="0.43529411764705883" d="M 850.5 441 L 852 441.5 L 844.5 444 L 844.5 443 L 850.5 441 Z " /><path fill="rgb(0,91,187)" stroke="rgb(0,91,187)" stroke-width="1" opacity="0.43529411764705883" d="M 196.5 442 L 202 446.5 L 201.5 447 L 199.5 445 L 196 442.5 L 196.5 442 Z " /><path fill="rgb(0,91,187)" stroke="rgb(0,91,187)" stroke-width="1" opacity="0.43529411764705883" d="M 479.5 442 L 482 442.5 L 479.5 443 L 479.5 442 Z " /><path fill="rgb(0,91,187)" stroke="rgb(0,91,187)" stroke-width="1" opacity="0.43529411764705883" d="M 1253.5 442 L 1253.5 443 L 1253.5 442 Z " /><path fill="rgb(0,91,187)" stroke="rgb(0,91,187)" stroke-width="1" opacity="0.43529411764705883" d="M 484.5 443 L 487 443.5 L 484.5 444 L 484.5 443 Z " /><path fill="rgb(0,91,187)" stroke="rgb(0,91,187)" stroke-width="1" opacity="0.43529411764705883" d="M 1251.5 443 L 1251.5 444 L 1251.5 443 Z " /><path fill="rgb(0,91,187)" stroke="rgb(0,91,187)" stroke-width="1" opacity="0.43529411764705883" d="M 1454.5 443 L 1455 443.5 L 1450.5 448 L 1435.5 460 L 1435 459.5 L 1437.5 457 L 1442.5 454 L 1454.5 443 Z " /><path fill="rgb(0,91,187)" stroke="rgb(0,91,187)" stroke-width="1" opacity="0.43529411764705883" d="M 489.5 444 L 493 444.5 L 489.5 445 L 489.5 444 Z " /><path fill="rgb(0,91,187)" stroke="rgb(0,91,187)" stroke-width="1" opacity="0.43529411764705883" d="M 841.5 444 L 843 444.5 L 841.5 445 L 841.5 444 Z " /><path fill="rgb(0,91,187)" stroke="rgb(0,91,187)" stroke-width="1" opacity="0.43529411764705883" d="M 1007.5 444 L 1008 444.5 L 1003.5 449 L 1002 448.5 L 1007.5 444 Z " /><path fill="rgb(0,91,187)" stroke="rgb(0,91,187)" stroke-width="1" opacity="0.43529411764705883" d="M 1248.5 444 L 1250 444.5 L 1248.5 445 L 1248.5 444 Z " /><path fill="rgb(0,91,187)" stroke="rgb(0,91,187)" stroke-width="1" opacity="0.43529411764705883" d="M 495.5 445 L 499 445.5 L 495.5 446 L 495.5 445 Z " /><path fill="rgb(0,91,187)" stroke="rgb(0,91,187)" stroke-width="1" opacity="0.43529411764705883" d="M 837.5 445 L 840 445.5 L 837.5 446 L 837.5 445 Z " /><path fill="rgb(0,91,187)" stroke="rgb(0,91,187)" stroke-width="1" opacity="0.43529411764705883" d="M 1245.5 445 L 1247 445.5 L 1245.5 446 L 1245.5 445 Z " /><path fill="rgb(0,91,187)" stroke="rgb(0,91,187)" stroke-width="1" opacity="0.43529411764705883" d="M 502.5 446 L 507 446.5 L 502.5 447 L 502.5 446 Z " /><path fill="rgb(0,91,187)" stroke="rgb(0,91,187)" stroke-width="1" opacity="0.43529411764705883" d="M 832.5 446 L 835 446.5 L 832.5 447 L 832.5 446 Z " /><path fill="rgb(0,91,187)" stroke="rgb(0,91,187)" stroke-width="1" opacity="0.43529411764705883" d="M 1241.5 446 L 1244 446.5 L 1241.5 447 L 1241.5 446 Z " /><path fill="rgb(0,91,187)" stroke="rgb(0,91,187)" stroke-width="1" opacity="0.43529411764705883" d="M 203.5 447 Q 206 448 204.5 449 Q 202 448 203.5 447 Z " /><path fill="rgb(0,91,187)" stroke="rgb(0,91,187)" stroke-width="1" opacity="0.43529411764705883" d="M 511.5 447 L 516 447.5 L 511.5 448 L 511.5 447 Z " /><path fill="rgb(0,91,187)" stroke="rgb(0,91,187)" stroke-width="1" opacity="0.43529411764705883" d="M 827.5 447 L 831 447.5 L 827.5 448 L 827.5 447 Z " /><path fill="rgb(0,91,187)" stroke="rgb(0,91,187)" stroke-width="1" opacity="0.43529411764705883" d="M 1237.5 447 L 1240 447.5 L 1237.5 448 L 1237.5 447 Z " /><path fill="rgb(0,91,187)" stroke="rgb(0,91,187)" stroke-width="1" opacity="0.43529411764705883" d="M 521.5 448 L 528 448.5 L 521.5 449 L 521.5 448 Z " /><path fill="rgb(0,91,187)" stroke="rgb(0,91,187)" stroke-width="1" opacity="0.43529411764705883" d="M 820.5 448 L 824 448.5 L 820.5 449 L 820.5 448 Z " /><path fill="rgb(0,91,187)" stroke="rgb(0,91,187)" stroke-width="1" opacity="0.43529411764705883" d="M 1230.5 448 L 1235 448.5 L 1230.5 449 L 1230.5 448 Z " /><path fill="rgb(0,91,187)" stroke="rgb(0,91,187)" stroke-width="1" opacity="0.43529411764705883" d="M 206.5 449 Q 209 450 207.5 451 Q 205 450 206.5 449 Z " /><path fill="rgb(0,91,187)" stroke="rgb(0,91,187)" stroke-width="1" opacity="0.43529411764705883" d="M 536.5 449 L 549 449.5 L 536.5 450 L 536.5 449 Z " /><path fill="rgb(0,91,187)" stroke="rgb(0,91,187)" stroke-width="1" opacity="0.43529411764705883" d="M 807.5 449 L 816 449.5 L 807.5 450 L 807.5 449 Z " /><path fill="rgb(0,91,187)" stroke="rgb(0,91,187)" stroke-width="1" opacity="0.43529411764705883" d="M 209.5 451 L 213 453.5 L 211.5 453 Q 207.69 452.31 209.5 451 Z " /><path fill="rgb(0,91,187)" stroke="rgb(0,91,187)" stroke-width="1" opacity="0.43529411764705883" d="M 214.5 454 L 218 456.5 L 216.5 456 Q 212.69 455.31 214.5 454 Z " /><path fill="rgb(0,91,187)" stroke="rgb(0,91,187)" stroke-width="1" opacity="0.43529411764705883" d="M 219.5 457 L 223 459.5 L 221.5 459 Q 217.69 458.31 219.5 457 Z " /><path fill="rgb(0,91,187)" stroke="rgb(0,91,187)" stroke-width="1" opacity="0.43529411764705883" d="M 224.5 460 L 224.5 461 L 224.5 460 Z " /><path fill="rgb(0,91,187)" stroke="rgb(0,91,187)" stroke-width="1" opacity="0.43529411764705883" d="M 1433.5 460 Q 1435 461 1432.5 462 Q 1431 461 1433.5 460 Z " /><path fill="rgb(0,91,187)" stroke="rgb(0,91,187)" stroke-width="1" opacity="0.43529411764705883" d="M 226.5 461 L 226.5 462 L 226.5 461 Z " /><path fill="rgb(0,91,187)" stroke="rgb(0,91,187)" stroke-width="1" opacity="0.43529411764705883" d="M 228.5 462 L 243 469.5 L 241.5 470 L 229.5 464 Q 227 463 228.5 462 Z " /><path fill="rgb(0,91,187)" stroke="rgb(0,91,187)" stroke-width="1" opacity="0.43529411764705883" d="M 1430.5 462 Q 1432 463 1429.5 464 Q 1428 463 1430.5 462 Z " /><path fill="rgb(0,91,187)" stroke="rgb(0,91,187)" stroke-width="1" opacity="0.43529411764705883" d="M 1427.5 464 Q 1429 465 1426.5 466 L 1422.5 468 Q 1421 467 1423.5 466 L 1427.5 464 Z " /><path fill="rgb(0,91,187)" stroke="rgb(0,91,187)" stroke-width="1" opacity="0.43529411764705883" d="M 1420.5 468 L 1420.5 469 L 1420.5 468 Z " /><path fill="rgb(0,91,187)" stroke="rgb(0,91,187)" stroke-width="1" opacity="0.43529411764705883" d="M 1418.5 469 L 1418.5 470 L 1418.5 469 Z " /><path fill="rgb(0,91,187)" stroke="rgb(0,91,187)" stroke-width="1" opacity="0.43529411764705883" d="M 244.5 470 L 244.5 471 L 244.5 470 Z " /><path fill="rgb(0,91,187)" stroke="rgb(0,91,187)" stroke-width="1" opacity="0.43529411764705883" d="M 1415.5 470 L 1417 470.5 L 1413.5 472 L 1413.5 471 L 1415.5 470 Z " /><path fill="rgb(0,91,187)" stroke="rgb(0,91,187)" stroke-width="1" opacity="0.43529411764705883" d="M 246.5 471 L 246.5 472 L 246.5 471 Z " /><path fill="rgb(0,91,187)" stroke="rgb(0,91,187)" stroke-width="1" opacity="0.43529411764705883" d="M 248.5 472 L 252 473.5 L 250.5 474 L 248 472.5 L 248.5 472 Z " /><path fill="rgb(0,91,187)" stroke="rgb(0,91,187)" stroke-width="1" opacity="0.43529411764705883" d="M 1411.5 472 L 1411.5 473 L 1411.5 472 Z " /><path fill="rgb(0,91,187)" stroke="rgb(0,91,187)" stroke-width="1" opacity="0.43529411764705883" d="M 1408.5 473 L 1410 473.5 L 1408.5 474 L 1408.5 473 Z " /><path fill="rgb(0,91,187)" stroke="rgb(0,91,187)" stroke-width="1" opacity="0.43529411764705883" d="M 253.5 474 L 253.5 475 L 253.5 474 Z " /><path fill="rgb(0,91,187)" stroke="rgb(0,91,187)" stroke-width="1" opacity="0.43529411764705883" d="M 1405.5 474 L 1407 474.5 L 1399.5 477 L 1399.5 476 L 1405.5 474 Z " /><path fill="rgb(0,91,187)" stroke="rgb(0,91,187)" stroke-width="1" opacity="0.43529411764705883" d="M 255.5 475 L 259 476.5 L 257.5 477 L 255 475.5 L 255.5 475 Z " /><path fill="rgb(0,91,187)" stroke="rgb(0,91,187)" stroke-width="1" opacity="0.43529411764705883" d="M 260.5 477 L 264 478.5 L 262.5 479 L 260 477.5 L 260.5 477 Z " /><path fill="rgb(0,91,187)" stroke="rgb(0,91,187)" stroke-width="1" opacity="0.43529411764705883" d="M 1396.5 477 L 1398 477.5 L 1396.5 478 L 1396.5 477 Z " /><path fill="rgb(0,91,187)" stroke="rgb(0,91,187)" stroke-width="1" opacity="0.43529411764705883" d="M 1392.5 478 L 1395 478.5 L 1392.5 479 L 1392.5 478 Z " /><path fill="rgb(0,91,187)" stroke="rgb(0,91,187)" stroke-width="1" opacity="0.43529411764705883" d="M 265.5 479 L 269 480.5 L 267.5 481 L 265 479.5 L 265.5 479 Z " /><path fill="rgb(0,91,187)" stroke="rgb(0,91,187)" stroke-width="1" opacity="0.43529411764705883" d="M 1387.5 479 L 1390 479.5 L 1387.5 480 L 1387.5 479 Z " /><path fill="rgb(0,91,187)" stroke="rgb(0,91,187)" stroke-width="1" opacity="0.43529411764705883" d="M 1382.5 480 L 1385 480.5 L 1382.5 481 L 1382.5 480 Z " /><path fill="rgb(0,91,187)" stroke="rgb(0,91,187)" stroke-width="1" opacity="0.43529411764705883" d="M 270.5 481 L 272 481.5 L 270.5 482 L 270.5 481 Z " /><path fill="rgb(0,91,187)" stroke="rgb(0,91,187)" stroke-width="1" opacity="0.43529411764705883" d="M 1379.5 481 L 1379 482.5 L 1378.5 484 L 1378 482.5 L 1379.5 481 Z " /><path fill="rgb(0,91,187)" stroke="rgb(0,91,187)" stroke-width="1" opacity="0.43529411764705883" d="M 273.5 482 L 277 483.5 L 275.5 484 L 273 482.5 L 273.5 482 Z " /><path fill="rgb(0,91,187)" stroke="rgb(0,91,187)" stroke-width="1" opacity="0.43529411764705883" d="M 278.5 484 L 280 484.5 L 278.5 485 L 278.5 484 Z " /><path fill="rgb(0,91,187)" stroke="rgb(0,91,187)" stroke-width="1" opacity="0.43529411764705883" d="M 1380.5 484 L 1384 484.5 L 1380.5 485 L 1380.5 484 Z " /><path fill="rgb(0,91,187)" stroke="rgb(0,91,187)" stroke-width="1" opacity="0.43529411764705883" d="M 281.5 485 L 283 485.5 L 281.5 486 L 281.5 485 Z " /><path fill="rgb(0,91,187)" stroke="rgb(0,91,187)" stroke-width="1" opacity="0.43529411764705883" d="M 1386.5 485 L 1390 485.5 L 1386.5 486 L 1386.5 485 Z " /><path fill="rgb(0,91,187)" stroke="rgb(0,91,187)" stroke-width="1" opacity="0.43529411764705883" d="M 284.5 486 L 286 486.5 L 284.5 487 L 284.5 486 Z " /><path fill="rgb(0,91,187)" stroke="rgb(0,91,187)" stroke-width="1" opacity="0.43529411764705883" d="M 1391.5 486 L 1394 486.5 L 1391.5 487 L 1391.5 486 Z " /><path fill="rgb(0,91,187)" stroke="rgb(0,91,187)" stroke-width="1" opacity="0.43529411764705883" d="M 287.5 487 L 289 487.5 L 287.5 488 L 287.5 487 Z " /><path fill="rgb(0,91,187)" stroke="rgb(0,91,187)" stroke-width="1" opacity="0.43529411764705883" d="M 1396.5 487 L 1398 487.5 L 1396.5 488 L 1396.5 487 Z " /><path fill="rgb(0,91,187)" stroke="rgb(0,91,187)" stroke-width="1" opacity="0.43529411764705883" d="M 290.5 488 L 292 488.5 L 290.5 489 L 290.5 488 Z " /><path fill="rgb(0,91,187)" stroke="rgb(0,91,187)" stroke-width="1" opacity="0.43529411764705883" d="M 1399.5 488 L 1402 488.5 L 1399.5 489 L 1399.5 488 Z " /><path fill="rgb(0,91,187)" stroke="rgb(0,91,187)" stroke-width="1" opacity="0.43529411764705883" d="M 293.5 489 L 299 490.5 L 296.5 491 L 293.5 490 L 293.5 489 Z " /><path fill="rgb(0,91,187)" stroke="rgb(0,91,187)" stroke-width="1" opacity="0.43529411764705883" d="M 1403.5 489 L 1405 489.5 L 1403.5 490 L 1403.5 489 Z " /><path fill="rgb(0,91,187)" stroke="rgb(0,91,187)" stroke-width="1" opacity="0.43529411764705883" d="M 1406.5 490 L 1408 490.5 L 1406.5 491 L 1406.5 490 Z " /><path fill="rgb(0,91,187)" stroke="rgb(0,91,187)" stroke-width="1" opacity="0.43529411764705883" d="M 300.5 491 L 302 491.5 L 300.5 492 L 300.5 491 Z " /><path fill="rgb(0,91,187)" stroke="rgb(0,91,187)" stroke-width="1" opacity="0.43529411764705883" d="M 1409.5 491 L 1413 492.5 L 1411.5 493 L 1409 491.5 L 1409.5 491 Z " /><path fill="rgb(0,91,187)" stroke="rgb(0,91,187)" stroke-width="1" opacity="0.43529411764705883" d="M 303.5 492 L 306 492.5 L 303.5 493 L 303.5 492 Z " /><path fill="rgb(0,91,187)" stroke="rgb(0,91,187)" stroke-width="1" opacity="0.43529411764705883" d="M 307.5 493 L 309 493.5 L 307.5 494 L 307.5 493 Z " /><path fill="rgb(0,91,187)" stroke="rgb(0,91,187)" stroke-width="1" opacity="0.43529411764705883" d="M 1414.5 493 L 1418 494.5 L 1416.5 495 L 1414 493.5 L 1414.5 493 Z " /><path fill="rgb(0,91,187)" stroke="rgb(0,91,187)" stroke-width="1" opacity="0.43529411764705883" d="M 310.5 494 L 313 494.5 L 310.5 495 L 310.5 494 Z " /><path fill="rgb(0,91,187)" stroke="rgb(0,91,187)" stroke-width="1" opacity="0.43529411764705883" d="M 314.5 495 L 317 495.5 L 314.5 496 L 314.5 495 Z " /><path fill="rgb(0,91,187)" stroke="rgb(0,91,187)" stroke-width="1" opacity="0.43529411764705883" d="M 1419.5 495 L 1419.5 496 L 1419.5 495 Z " /><path fill="rgb(0,91,187)" stroke="rgb(0,91,187)" stroke-width="1" opacity="0.43529411764705883" d="M 318.5 496 L 320 496.5 L 318.5 497 L 318.5 496 Z " /><path fill="rgb(0,91,187)" stroke="rgb(0,91,187)" stroke-width="1" opacity="0.43529411764705883" d="M 1421.5 496 L 1421.5 497 L 1421.5 496 Z " /><path fill="rgb(0,91,187)" stroke="rgb(0,91,187)" stroke-width="1" opacity="0.43529411764705883" d="M 322.5 497 L 324 497.5 L 322.5 498 L 322.5 497 Z " /><path fill="rgb(0,91,187)" stroke="rgb(0,91,187)" stroke-width="1" opacity="0.43529411764705883" d="M 1423.5 497 L 1423.5 498 L 1423.5 497 Z " /><path fill="rgb(0,91,187)" stroke="rgb(0,91,187)" stroke-width="1" opacity="0.43529411764705883" d="M 326.5 498 L 328 498.5 L 326.5 499 L 326.5 498 Z " /><path fill="rgb(0,91,187)" stroke="rgb(0,91,187)" stroke-width="1" opacity="0.43529411764705883" d="M 1425.5 498 L 1425.5 499 L 1425.5 498 Z " /><path fill="rgb(0,91,187)" stroke="rgb(0,91,187)" stroke-width="1" opacity="0.43529411764705883" d="M 330.5 499 L 333 499.5 L 330.5 500 L 330.5 499 Z " /><path fill="rgb(0,91,187)" stroke="rgb(0,91,187)" stroke-width="1" opacity="0.43529411764705883" d="M 1427.5 499 L 1433 502.5 L 1431.5 502 Q 1427.5 501.5 1427.5 499 Z " /><path fill="rgb(0,91,187)" stroke="rgb(0,91,187)" stroke-width="1" opacity="0.43529411764705883" d="M 334.5 500 L 337 500.5 L 334.5 501 L 334.5 500 Z " /><path fill="rgb(0,91,187)" stroke="rgb(0,91,187)" stroke-width="1" opacity="0.43529411764705883" d="M 338.5 501 L 341 501.5 L 338.5 502 L 338.5 501 Z " /><path fill="rgb(0,91,187)" stroke="rgb(0,91,187)" stroke-width="1" opacity="0.43529411764705883" d="M 343.5 502 L 346 502.5 L 343.5 503 L 343.5 502 Z " /><path fill="rgb(0,91,187)" stroke="rgb(0,91,187)" stroke-width="1" opacity="0.43529411764705883" d="M 348.5 503 L 351 503.5 L 348.5 504 L 348.5 503 Z " /><path fill="rgb(0,91,187)" stroke="rgb(0,91,187)" stroke-width="1" opacity="0.43529411764705883" d="M 1434.5 503 Q 1437 504 1435.5 505 Q 1433 504 1434.5 503 Z " /><path fill="rgb(0,91,187)" stroke="rgb(0,91,187)" stroke-width="1" opacity="0.43529411764705883" d="M 353.5 504 L 356 504.5 L 353.5 505 L 353.5 504 Z " /><path fill="rgb(0,91,187)" stroke="rgb(0,91,187)" stroke-width="1" opacity="0.43529411764705883" d="M 358.5 505 L 361 505.5 L 358.5 506 L 358.5 505 Z " /><path fill="rgb(0,91,187)" stroke="rgb(0,91,187)" stroke-width="1" opacity="0.43529411764705883" d="M 1437.5 505 Q 1440 506 1438.5 507 Q 1436 506 1437.5 505 Z " /><path fill="rgb(0,91,187)" stroke="rgb(0,91,187)" stroke-width="1" opacity="0.43529411764705883" d="M 363.5 506 L 366 506.5 L 363.5 507 L 363.5 506 Z " /><path fill="rgb(0,91,187)" stroke="rgb(0,91,187)" stroke-width="1" opacity="0.43529411764705883" d="M 369.5 507 L 372 507.5 L 369.5 508 L 369.5 507 Z " /><path fill="rgb(0,91,187)" stroke="rgb(0,91,187)" stroke-width="1" opacity="0.43529411764705883" d="M 1440.5 507 L 1447 512.5 L 1446.5 513 L 1443.5 510 L 1440 507.5 L 1440.5 507 Z " /><path fill="rgb(0,91,187)" stroke="rgb(0,91,187)" stroke-width="1" opacity="0.43529411764705883" d="M 374.5 508 L 378 508.5 L 374.5 509 L 374.5 508 Z " /><path fill="rgb(0,91,187)" stroke="rgb(0,91,187)" stroke-width="1" opacity="0.43529411764705883" d="M 380.5 509 L 384 509.5 L 380.5 510 L 380.5 509 Z " /><path fill="rgb(0,91,187)" stroke="rgb(0,91,187)" stroke-width="1" opacity="0.43529411764705883" d="M 387.5 510 L 391 510.5 L 387.5 511 L 387.5 510 Z " /><path fill="rgb(0,91,187)" stroke="rgb(0,91,187)" stroke-width="1" opacity="0.43529411764705883" d="M 394.5 511 L 398 511.5 L 394.5 512 L 394.5 511 Z " /><path fill="rgb(0,91,187)" stroke="rgb(0,91,187)" stroke-width="1" opacity="0.43529411764705883" d="M 401.5 512 L 405 512.5 L 401.5 513 L 401.5 512 Z " /><path fill="rgb(0,91,187)" stroke="rgb(0,91,187)" stroke-width="1" opacity="0.43529411764705883" d="M 408.5 513 L 413 513.5 L 408.5 514 L 408.5 513 Z " /><path fill="rgb(0,91,187)" stroke="rgb(0,91,187)" stroke-width="1" opacity="0.43529411764705883" d="M 1448.5 513 L 1461 524.5 L 1460.5 525 L 1455.5 520 L 1448 513.5 L 1448.5 513 Z " /><path fill="rgb(0,91,187)" stroke="rgb(0,91,187)" stroke-width="1" opacity="0.43529411764705883" d="M 417.5 514 L 422 514.5 L 417.5 515 L 417.5 514 Z " /><path fill="rgb(0,91,187)" stroke="rgb(0,91,187)" stroke-width="1" opacity="0.43529411764705883" d="M 425.5 515 L 431 515.5 L 425.5 516 L 425.5 515 Z " /><path fill="rgb(0,91,187)" stroke="rgb(0,91,187)" stroke-width="1" opacity="0.43529411764705883" d="M 435.5 516 L 441 516.5 L 435.5 517 L 435.5 516 Z " /><path fill="rgb(0,91,187)" stroke="rgb(0,91,187)" stroke-width="1" opacity="0.43529411764705883" d="M 446.5 517 L 452 517.5 L 446.5 518 L 446.5 517 Z " /><path fill="rgb(0,91,187)" stroke="rgb(0,91,187)" stroke-width="1" opacity="0.43529411764705883" d="M 458.5 518 L 465 518.5 L 458.5 519 L 458.5 518 Z " /><path fill="rgb(0,91,187)" stroke="rgb(0,91,187)" stroke-width="1" opacity="0.43529411764705883" d="M 472.5 519 L 481 519.5 L 472.5 520 L 472.5 519 Z " /><path fill="rgb(0,91,187)" stroke="rgb(0,91,187)" stroke-width="1" opacity="0.43529411764705883" d="M 489.5 520 L 501 520.5 L 489.5 521 L 489.5 520 Z " /><path fill="rgb(0,91,187)" stroke="rgb(0,91,187)" stroke-width="1" opacity="0.43529411764705883" d="M 513.5 521 L 533 521.5 L 513.5 522 L 513.5 521 Z " /><path fill="rgb(0,91,187)" stroke="rgb(0,91,187)" stroke-width="1" opacity="0.43529411764705883" d="M 799.5 522 L 800 679 L 1113 679.5 L 799 680 L 799.5 522 Z " /><path fill="rgb(0,91,187)" stroke="rgb(0,91,187)" stroke-width="1" opacity="0.43529411764705883" d="M 1223.5 522 L 1229 522.5 L 1223.5 523 L 1223.5 522 Z " /><path fill="rgb(0,91,187)" stroke="rgb(0,91,187)" stroke-width="1" opacity="0.43529411764705883" d="M 1231.5 523 L 1235 523.5 L 1231.5 524 L 1231.5 523 Z " /><path fill="rgb(0,91,187)" stroke="rgb(0,91,187)" stroke-width="1" opacity="0.43529411764705883" d="M 1236.5 524 L 1239 524.5 L 1236.5 525 L 1236.5 524 Z " /><path fill="rgb(0,91,187)" stroke="rgb(0,91,187)" stroke-width="1" opacity="0.43529411764705883" d="M 1240.5 525 L 1242 525.5 L 1240.5 526 L 1240.5 525 Z " /><path fill="rgb(0,91,187)" stroke="rgb(0,91,187)" stroke-width="1" opacity="0.43529411764705883" d="M 1243.5 526 L 1245 526.5 L 1243.5 527 L 1243.5 526 Z " /><path fill="rgb(0,91,187)" stroke="rgb(0,91,187)" stroke-width="1" opacity="0.43529411764705883" d="M 1461.5 526 L 1468 532.5 L 1467.5 533 L 1461 526.5 L 1461.5 526 Z " /><path fill="rgb(0,91,187)" stroke="rgb(0,91,187)" stroke-width="1" opacity="0.43529411764705883" d="M 1246.5 527 L 1250 528.5 L 1248.5 529 L 1246 527.5 L 1246.5 527 Z " /><path fill="rgb(0,91,187)" stroke="rgb(0,91,187)" stroke-width="1" opacity="0.43529411764705883" d="M 1251.5 529 L 1251.5 530 L 1251.5 529 Z " /><path fill="rgb(0,91,187)" stroke="rgb(0,91,187)" stroke-width="1" opacity="0.43529411764705883" d="M 1253.5 530 L 1253.5 531 L 1253.5 530 Z " /><path fill="rgb(0,91,187)" stroke="rgb(0,91,187)" stroke-width="1" opacity="0.43529411764705883" d="M 1255.5 531 L 1255.5 532 L 1255.5 531 Z " /><path fill="rgb(0,91,187)" stroke="rgb(0,91,187)" stroke-width="1" opacity="0.43529411764705883" d="M 1257.5 532 L 1265 537.5 L 1264.5 538 L 1262.5 536 Q 1257.92 534.83 1257.5 532 Z " /><path fill="rgb(0,91,187)" stroke="rgb(0,91,187)" stroke-width="1" opacity="0.43529411764705883" d="M 1468.5 534 L 1471 536.5 L 1470.5 537 L 1468 534.5 L 1468.5 534 Z " /><path fill="rgb(0,91,187)" stroke="rgb(0,91,187)" stroke-width="1" opacity="0.43529411764705883" d="M 1266.5 538 L 1271 542.5 L 1270.5 543 L 1266 538.5 L 1266.5 538 Z " /><path fill="rgb(0,91,187)" stroke="rgb(0,91,187)" stroke-width="1" opacity="0.43529411764705883" d="M 1471.5 538 L 1479 548.5 Q 1478 550 1477 547.5 L 1471 538.5 L 1471.5 538 Z " /><path fill="rgb(0,91,187)" stroke="rgb(0,91,187)" stroke-width="1" opacity="0.43529411764705883" d="M 1272.5 543 L 1276 546.5 L 1275.5 547 L 1272 543.5 L 1272.5 543 Z " /><path fill="rgb(0,91,187)" stroke="rgb(0,91,187)" stroke-width="1" opacity="0.43529411764705883" d="M 1276.5 548 L 1281 552.5 L 1280.5 553 L 1276 548.5 L 1276.5 548 Z " /><path fill="rgb(0,91,187)" stroke="rgb(0,91,187)" stroke-width="1" opacity="0.43529411764705883" d="M 1479.5 550 L 1487 564.5 L 1486 564.5 L 1479 550.5 L 1479.5 550 Z " /><path fill="rgb(0,91,187)" stroke="rgb(0,91,187)" stroke-width="1" opacity="0.43529411764705883" d="M 1281.5 554 L 1288 563.5 Q 1287 565 1286 562.5 L 1285 559.5 L 1281 554.5 L 1281.5 554 Z " /><path fill="rgb(0,91,187)" stroke="rgb(0,91,187)" stroke-width="1" opacity="0.43529411764705883" d="M 1288.5 565 L 1288.5 566 L 1288.5 565 Z " /><path fill="rgb(0,91,187)" stroke="rgb(0,91,187)" stroke-width="1" opacity="0.43529411764705883" d="M 1487.5 566 L 1489 569.5 L 1488 569.5 Q 1486.29 567.96 1487.5 566 Z " /><path fill="rgb(0,91,187)" stroke="rgb(0,91,187)" stroke-width="1" opacity="0.43529411764705883" d="M 1289.5 567 L 1289.5 568 L 1289.5 567 Z " /><path fill="rgb(0,91,187)" stroke="rgb(0,91,187)" stroke-width="1" opacity="0.43529411764705883" d="M 1290.5 569 L 1292 572.5 L 1291 572.5 Q 1289.29 570.96 1290.5 569 Z " /><path fill="rgb(0,91,187)" stroke="rgb(0,91,187)" stroke-width="1" opacity="0.43529411764705883" d="M 1489.5 571 L 1490 572.5 L 1489 572.5 L 1489.5 571 Z " /><path fill="rgb(0,91,187)" stroke="rgb(0,91,187)" stroke-width="1" opacity="0.43529411764705883" d="M 1292.5 574 L 1293 575.5 L 1292 575.5 L 1292.5 574 Z " /><path fill="rgb(0,91,187)" stroke="rgb(0,91,187)" stroke-width="1" opacity="0.43529411764705883" d="M 1490.5 574 L 1491 575.5 L 1490 575.5 L 1490.5 574 Z " /><path fill="rgb(0,91,187)" stroke="rgb(0,91,187)" stroke-width="1" opacity="0.43529411764705883" d="M 1293.5 577 L 1294 578.5 L 1293 578.5 L 1293.5 577 Z " /><path fill="rgb(0,91,187)" stroke="rgb(0,91,187)" stroke-width="1" opacity="0.43529411764705883" d="M 1491.5 577 L 1492 578.5 L 1491 578.5 L 1491.5 577 Z " /><path fill="rgb(0,91,187)" stroke="rgb(0,91,187)" stroke-width="1" opacity="0.43529411764705883" d="M 1294.5 580 L 1295 582.5 L 1294 582.5 L 1294.5 580 Z " /><path fill="rgb(0,91,187)" stroke="rgb(0,91,187)" stroke-width="1" opacity="0.43529411764705883" d="M 1492.5 580 L 1493 582.5 L 1492 582.5 L 1492.5 580 Z " /><path fill="rgb(0,91,187)" stroke="rgb(0,91,187)" stroke-width="1" opacity="0.43529411764705883" d="M 1493.5 584 L 1494 585.5 L 1493 585.5 L 1493.5 584 Z " /><path fill="rgb(0,91,187)" stroke="rgb(0,91,187)" stroke-width="1" opacity="0.43529411764705883" d="M 1295.5 585 L 1296 587.5 L 1295 587.5 L 1295.5 585 Z " /><path fill="rgb(0,91,187)" stroke="rgb(0,91,187)" stroke-width="1" opacity="0.43529411764705883" d="M 1494.5 588 L 1495 590.5 L 1494 590.5 L 1494.5 588 Z " /><path fill="rgb(0,91,187)" stroke="rgb(0,91,187)" stroke-width="1" opacity="0.43529411764705883" d="M 1296.5 591 L 1297 597.5 L 1296 597.5 L 1296.5 591 Z " /><path fill="rgb(0,91,187)" stroke="rgb(0,91,187)" stroke-width="1" opacity="0.43529411764705883" d="M 1495.5 593 L 1496 595.5 L 1495 595.5 L 1495.5 593 Z " /><path fill="rgb(0,91,187)" stroke="rgb(0,91,187)" stroke-width="1" opacity="0.43529411764705883" d="M 1496.5 599 L 1497 603.5 L 1496 603.5 L 1496.5 599 Z " /><path fill="rgb(0,91,187)" stroke="rgb(0,91,187)" stroke-width="1" opacity="0.43529411764705883" d="M 1296.5 603 L 1297 609.5 L 1296 609.5 L 1296.5 603 Z " /><path fill="rgb(0,91,187)" stroke="rgb(0,91,187)" stroke-width="1" opacity="0.43529411764705883" d="M 1497.5 609 L 1498 625.5 L 1497 625.5 L 1497.5 609 Z " /><path fill="rgb(0,91,187)" stroke="rgb(0,91,187)" stroke-width="1" opacity="0.43529411764705883" d="M 1295.5 613 L 1296 616.5 L 1295 616.5 L 1295.5 613 Z " /><path fill="rgb(0,91,187)" stroke="rgb(0,91,187)" stroke-width="1" opacity="0.43529411764705883" d="M 1294.5 618 L 1295 620.5 L 1294 620.5 L 1294.5 618 Z " /><path fill="rgb(0,91,187)" stroke="rgb(0,91,187)" stroke-width="1" opacity="0.43529411764705883" d="M 1293.5 622 L 1294 623.5 L 1293 623.5 L 1293.5 622 Z " /><path fill="rgb(0,91,187)" stroke="rgb(0,91,187)" stroke-width="1" opacity="0.43529411764705883" d="M 1292.5 625 L 1293 626.5 L 1292 626.5 L 1292.5 625 Z " /><path fill="rgb(0,91,187)" stroke="rgb(0,91,187)" stroke-width="1" opacity="0.43529411764705883" d="M 1291.5 628 L 1292 629.5 L 1290.5 632 L 1290 630.5 L 1291.5 628 Z " /><path fill="rgb(0,91,187)" stroke="rgb(0,91,187)" stroke-width="1" opacity="0.43529411764705883" d="M 1496.5 632 L 1497 636.5 L 1496 636.5 L 1496.5 632 Z " /><path fill="rgb(0,91,187)" stroke="rgb(0,91,187)" stroke-width="1" opacity="0.43529411764705883" d="M 1289.5 633 L 1289.5 634 L 1289.5 633 Z " /><path fill="rgb(0,91,187)" stroke="rgb(0,91,187)" stroke-width="1" opacity="0.43529411764705883" d="M 1288.5 635 L 1288.5 636 L 1288.5 635 Z " /><path fill="rgb(0,91,187)" stroke="rgb(0,91,187)" stroke-width="1" opacity="0.43529411764705883" d="M 1287.5 637 L 1287.5 638 L 1287.5 637 Z " /><path fill="rgb(0,91,187)" stroke="rgb(0,91,187)" stroke-width="1" opacity="0.43529411764705883" d="M 1286.5 639 L 1286 640.5 L 1284.5 643 L 1285 641.5 L 1286.5 639 Z " /><path fill="rgb(0,91,187)" stroke="rgb(0,91,187)" stroke-width="1" opacity="0.43529411764705883" d="M 1495.5 639 L 1496 642.5 L 1495 642.5 L 1495.5 639 Z " /><path fill="rgb(0,91,187)" stroke="rgb(0,91,187)" stroke-width="1" opacity="0.43529411764705883" d="M 1283.5 644 L 1284 644.5 L 1282 646.5 Q 1277.5 654.5 1270.5 660 L 1270 659.5 L 1277 652.5 L 1283.5 644 Z " /><path fill="rgb(0,91,187)" stroke="rgb(0,91,187)" stroke-width="1" opacity="0.43529411764705883" d="M 1494.5 645 L 1495 647.5 L 1494 647.5 L 1494.5 645 Z " /><path fill="rgb(0,91,187)" stroke="rgb(0,91,187)" stroke-width="1" opacity="0.43529411764705883" d="M 563.5 647 L 564 654.5 L 563 654.5 L 563.5 647 Z " /><path fill="rgb(0,91,187)" stroke="rgb(0,91,187)" stroke-width="1" opacity="0.43529411764705883" d="M 1493.5 649 L 1494 651.5 L 1493 651.5 L 1493.5 649 Z " /><path fill="rgb(0,91,187)" stroke="rgb(0,91,187)" stroke-width="1" opacity="0.43529411764705883" d="M 1492.5 653 L 1493 655.5 L 1492 655.5 L 1492.5 653 Z " /><path fill="rgb(0,91,187)" stroke="rgb(0,91,187)" stroke-width="1" opacity="0.43529411764705883" d="M 562.5 656 L 563 658.5 L 562 658.5 L 562.5 656 Z " /><path fill="rgb(0,91,187)" stroke="rgb(0,91,187)" stroke-width="1" opacity="0.43529411764705883" d="M 1491.5 657 L 1492 658.5 L 1491 658.5 L 1491.5 657 Z " /><path fill="rgb(0,91,187)" stroke="rgb(0,91,187)" stroke-width="1" opacity="0.43529411764705883" d="M 561.5 660 L 562 661.5 L 561 661.5 L 561.5 660 Z " /><path fill="rgb(0,91,187)" stroke="rgb(0,91,187)" stroke-width="1" opacity="0.43529411764705883" d="M 1268.5 660 L 1269 660.5 L 1265.5 664 L 1265 663.5 L 1268.5 660 Z " /><path fill="rgb(0,91,187)" stroke="rgb(0,91,187)" stroke-width="1" opacity="0.43529411764705883" d="M 1490.5 660 L 1491 661.5 L 1490 661.5 L 1490.5 660 Z " /><path fill="rgb(0,91,187)" stroke="rgb(0,91,187)" stroke-width="1" opacity="0.43529411764705883" d="M 560.5 663 L 560.5 664 L 560.5 663 Z " /><path fill="rgb(0,91,187)" stroke="rgb(0,91,187)" stroke-width="1" opacity="0.43529411764705883" d="M 1489.5 663 L 1490 664.5 L 1488.5 667 L 1488 665.5 L 1489.5 663 Z " /><path fill="rgb(0,91,187)" stroke="rgb(0,91,187)" stroke-width="1" opacity="0.43529411764705883" d="M 1263.5 664 Q 1265 665 1262.5 666 Q 1261 665 1263.5 664 Z " /><path fill="rgb(0,91,187)" stroke="rgb(0,91,187)" stroke-width="1" opacity="0.43529411764705883" d="M 559.5 665 L 559 666.5 L 552.5 674 L 552 673.5 L 558 667.5 L 559.5 665 Z " /><path fill="rgb(0,91,187)" stroke="rgb(0,91,187)" stroke-width="1" opacity="0.43529411764705883" d="M 1260.5 666 Q 1262 667 1259.5 668 Q 1258 667 1260.5 666 Z " /><path fill="rgb(0,91,187)" stroke="rgb(0,91,187)" stroke-width="1" opacity="0.43529411764705883" d="M 1257.5 668 Q 1259 669 1256.5 670 L 1249.5 673 L 1249.5 672 L 1257.5 668 Z " /><path fill="rgb(0,91,187)" stroke="rgb(0,91,187)" stroke-width="1" opacity="0.43529411764705883" d="M 1487.5 668 L 1488 669.5 L 1486.5 672 L 1486 670.5 L 1487.5 668 Z " /><path fill="rgb(0,91,187)" stroke="rgb(0,91,187)" stroke-width="1" opacity="0.43529411764705883" d="M 1247.5 673 L 1247.5 674 L 1247.5 673 Z " /><path fill="rgb(0,91,187)" stroke="rgb(0,91,187)" stroke-width="1" opacity="0.43529411764705883" d="M 1485.5 673 L 1485.5 674 L 1485.5 673 Z " /><path fill="rgb(0,91,187)" stroke="rgb(0,91,187)" stroke-width="1" opacity="0.43529411764705883" d="M 550.5 674 Q 552 675 549.5 676 L 546.5 677 L 546.5 676 L 550.5 674 Z " /><path fill="rgb(0,91,187)" stroke="rgb(0,91,187)" stroke-width="1" opacity="0.43529411764705883" d="M 1244.5 674 L 1246 674.5 L 1244.5 675 L 1244.5 674 Z " /><path fill="rgb(0,91,187)" stroke="rgb(0,91,187)" stroke-width="1" opacity="0.43529411764705883" d="M 1241.5 675 L 1243 675.5 L 1241.5 676 L 1241.5 675 Z " /><path fill="rgb(0,91,187)" stroke="rgb(0,91,187)" stroke-width="1" opacity="0.43529411764705883" d="M 1484.5 675 L 1484.5 676 L 1484.5 675 Z " /><path fill="rgb(0,91,187)" stroke="rgb(0,91,187)" stroke-width="1" opacity="0.43529411764705883" d="M 1237.5 676 L 1240 676.5 L 1237.5 677 L 1237.5 676 Z " /><path fill="rgb(0,91,187)" stroke="rgb(0,91,187)" stroke-width="1" opacity="0.43529411764705883" d="M 543.5 677 L 545 677.5 L 543.5 678 L 543.5 677 Z " /><path fill="rgb(0,91,187)" stroke="rgb(0,91,187)" stroke-width="1" opacity="0.43529411764705883" d="M 1233.5 677 L 1236 677.5 L 1233.5 678 L 1233.5 677 Z " /><path fill="rgb(0,91,187)" stroke="rgb(0,91,187)" stroke-width="1" opacity="0.43529411764705883" d="M 1483.5 677 L 1483.5 678 L 1483.5 677 Z " /><path fill="rgb(0,91,187)" stroke="rgb(0,91,187)" stroke-width="1" opacity="0.43529411764705883" d="M 539.5 678 L 542 678.5 L 539.5 679 L 539.5 678 Z " /><path fill="rgb(0,91,187)" stroke="rgb(0,91,187)" stroke-width="1" opacity="0.43529411764705883" d="M 1226.5 678 L 1231 678.5 L 1226.5 679 L 1226.5 678 Z " /><path fill="rgb(0,91,187)" stroke="rgb(0,91,187)" stroke-width="1" opacity="0.43529411764705883" d="M 443 679 L 536 679.5 L 444 680 L 444 751.5 L 444.5 752 L 1360.5 752 L 1360.5 753 L 443.5 753 L 443 752.5 L 443 679 Z " /><path fill="rgb(0,91,187)" stroke="rgb(0,91,187)" stroke-width="1" opacity="0.43529411764705883" d="M 1482.5 679 L 1482.5 680 L 1482.5 679 Z " /><path fill="rgb(0,91,187)" stroke="rgb(0,91,187)" stroke-width="1" opacity="0.43529411764705883" d="M 1481.5 681 L 1481 682.5 L 1479.5 685 L 1480 683.5 L 1481.5 681 Z " /><path fill="rgb(0,91,187)" stroke="rgb(0,91,187)" stroke-width="1" opacity="0.43529411764705883" d="M 1478.5 686 L 1478 687.5 L 1473.5 694 L 1473 693.5 L 1475 691.5 L 1478.5 686 Z " /><path fill="rgb(0,91,187)" stroke="rgb(0,91,187)" stroke-width="1" opacity="0.43529411764705883" d="M 1472.5 695 L 1473 695.5 L 1470.5 698 L 1470 697.5 L 1472.5 695 Z " /><path fill="rgb(0,91,187)" stroke="rgb(0,91,187)" stroke-width="1" opacity="0.43529411764705883" d="M 1469.5 699 L 1470 699.5 L 1464.5 705 L 1464 704.5 L 1469.5 699 Z " /><path fill="rgb(0,91,187)" stroke="rgb(0,91,187)" stroke-width="1" opacity="0.43529411764705883" d="M 1463.5 706 L 1464 706.5 L 1456.5 714 L 1445.5 723 L 1445 722.5 L 1448.5 719 L 1463.5 706 Z " /><path fill="rgb(0,91,187)" stroke="rgb(0,91,187)" stroke-width="1" opacity="0.43529411764705883" d="M 1443.5 723 L 1444 723.5 L 1441.5 726 L 1433.5 731 Q 1432 730 1434.5 729 L 1443.5 723 Z " /><path fill="rgb(0,91,187)" stroke="rgb(0,91,187)" stroke-width="1" opacity="0.43529411764705883" d="M 1431.5 731 Q 1433 732 1430.5 733 L 1424.5 736 Q 1423 735 1425.5 734 L 1431.5 731 Z " /><path fill="rgb(0,91,187)" stroke="rgb(0,91,187)" stroke-width="1" opacity="0.43529411764705883" d="M 1422.5 736 L 1422.5 737 L 1422.5 736 Z " /><path fill="rgb(0,91,187)" stroke="rgb(0,91,187)" stroke-width="1" opacity="0.43529411764705883" d="M 1419.5 737 L 1421 737.5 L 1415.5 740 L 1415.5 739 L 1419.5 737 Z " /><path fill="rgb(0,91,187)" stroke="rgb(0,91,187)" stroke-width="1" opacity="0.43529411764705883" d="M 1412.5 740 L 1414 740.5 L 1410.5 742 L 1410.5 741 L 1412.5 740 Z " /><path fill="rgb(0,91,187)" stroke="rgb(0,91,187)" stroke-width="1" opacity="0.43529411764705883" d="M 1407.5 742 L 1409 742.5 L 1398.5 746 L 1398.5 745 L 1407.5 742 Z " /><path fill="rgb(0,91,187)" stroke="rgb(0,91,187)" stroke-width="1" opacity="0.43529411764705883" d="M 1395.5 746 L 1397 746.5 L 1395.5 747 L 1395.5 746 Z " /><path fill="rgb(0,91,187)" stroke="rgb(0,91,187)" stroke-width="1" opacity="0.43529411764705883" d="M 1391.5 747 L 1394 747.5 L 1391.5 748 L 1391.5 747 Z " /><path fill="rgb(0,91,187)" stroke="rgb(0,91,187)" stroke-width="1" opacity="0.43529411764705883" d="M 1387.5 748 L 1390 748.5 L 1387.5 749 L 1387.5 748 Z " /><path fill="rgb(0,91,187)" stroke="rgb(0,91,187)" stroke-width="1" opacity="0.43529411764705883" d="M 1382.5 749 L 1385 749.5 L 1382.5 750 L 1382.5 749 Z " /><path fill="rgb(0,91,187)" stroke="rgb(0,91,187)" stroke-width="1" opacity="0.43529411764705883" d="M 1376.5 750 L 1380 750.5 L 1376.5 751 L 1376.5 750 Z " /><path fill="rgb(0,91,187)" stroke="rgb(0,91,187)" stroke-width="1" opacity="0.43529411764705883" d="M 1368.5 751 L 1373 751.5 L 1368.5 752 L 1368.5 751 Z " /><path fill="rgb(0,91,187)" stroke="rgb(0,91,187)" stroke-width="1" opacity="1" d="M 0 0 L 477.5 0 L 478 0.5 L 478 72 L 384.5 72 L 383.5 73 L 377.5 73 L 371.5 75 L 363 82.5 L 359 90.5 Q 360 94.5 358 95.5 L 358 315.5 L 359 316.5 L 359 325.5 L 360 326.5 L 360 332.5 L 361 333.5 L 361 338.5 L 363 343.5 L 363 347.5 L 366 354.5 L 366 357.5 L 370 365.5 L 370 367.5 L 383 389.5 L 400.5 408 L 420.5 422 L 436.5 430 L 438.5 430 L 446.5 434 L 455.5 437 L 458.5 437 L 462.5 439 L 465.5 439 L 474.5 442 L 478.5 442 L 479.5 443 L 483.5 443 L 484.5 444 L 488.5 444 L 489.5 445 L 501.5 446 L 502.5 447 L 510.5 447 L 511.5 448 L 520.5 448 L 521.5 449 L 535.5 449 L 536.5 450 L 564 450 L 564 328.5 L 560 316.5 L 553.5 309 L 546.5 305 L 540.5 303 L 444 303 L 444 230.5 L 444.5 230 L 920 230 L 920 97.5 L 919 96.5 L 918 88.5 L 916 84.5 L 909.5 77 L 900.5 73 L 894.5 73 L 893.5 72 L 799 72 L 799 0.5 L 799.5 0 L 1182 0 L 1182 72 L 1087.5 72 L 1086.5 73 L 1080.5 73 L 1077.5 74 L 1068 80.5 L 1063 89.5 Q 1063.75 92.75 1062 93.5 L 1062 102.5 L 1061 103.5 L 1061 230 L 1366.5 230 L 1367.5 231 L 1374.5 231 L 1375.5 232 L 1380.5 232 L 1381.5 233 L 1385.5 233 L 1386.5 234 L 1393.5 235 L 1408.5 240 L 1411.5 242 L 1413.5 242 L 1425.5 248 L 1439.5 257 L 1457 272.5 L 1471 290.5 L 1481 310.5 L 1485 322.5 L 1485 325.5 L 1487 330.5 L 1487 335.5 L 1488 336.5 L 1488 343.5 L 1489 344.5 L 1489 367.5 L 1488 368.5 L 1488 375.5 L 1487 376.5 L 1487 380.5 L 1486 381.5 L 1484 392.5 L 1478 406.5 L 1478 408.5 L 1465 430.5 L 1450.5 447 L 1434.5 460 L 1417.5 470 L 1415.5 470 L 1410.5 473 L 1395.5 478 L 1387.5 479 L 1386.5 480 L 1382.5 480 L 1378 482.5 Q 1377.25 484.75 1379.5 484 L 1380.5 485 L 1385.5 485 L 1386.5 486 L 1390.5 486 L 1391.5 487 L 1395.5 487 L 1399.5 489 L 1402.5 489 L 1426.5 499 L 1447.5 513 L 1461 525.5 L 1468 533.5 L 1479 549.5 L 1489 570.5 L 1492 579.5 L 1492 582.5 L 1494 586.5 L 1495 595.5 L 1496 596.5 L 1496 603.5 L 1497 604.5 L 1497 631.5 L 1496 632.5 L 1496 638.5 L 1495 639.5 L 1495 644.5 L 1494 645.5 L 1492 656.5 L 1486 670.5 L 1486 672.5 Q 1474.75 696.25 1456.5 713 L 1444.5 723 L 1421.5 737 L 1419.5 737 L 1414.5 740 L 1412.5 740 L 1409.5 742 L 1394.5 747 L 1391.5 747 L 1386.5 749 L 1382.5 749 L 1381.5 750 L 1376.5 750 L 1375.5 751 L 1368.5 751 L 1367.5 752 L 444 752 L 444 680 L 535.5 680 L 536.5 679 L 541.5 679 L 549.5 676 L 559 667.5 L 564 654.5 L 564 522 L 533.5 522 L 532.5 521 L 501.5 521 L 500.5 520 L 481.5 520 L 480.5 519 L 465.5 519 L 464.5 518 L 452.5 518 L 451.5 517 L 431.5 516 L 430.5 515 L 413.5 514 L 412.5 513 L 405.5 513 L 404.5 512 L 398.5 512 L 397.5 511 L 391.5 511 L 390.5 510 L 384.5 510 L 383.5 509 L 378.5 509 L 377.5 508 L 366.5 507 L 365.5 506 L 361.5 506 L 360.5 505 L 356.5 505 L 355.5 504 L 351.5 504 L 350.5 503 L 346.5 503 L 345.5 502 L 341.5 502 L 332.5 499 L 328.5 499 L 327.5 498 L 320.5 497 L 316.5 495 L 313.5 495 L 295.5 489 L 292.5 489 L 277.5 484 L 274.5 482 L 269.5 481 L 256.5 475 L 254.5 475 L 249.5 472 L 247.5 472 L 223.5 460 L 208.5 451 L 191.5 439 Q 177.09 427.91 165 414.5 L 148 392.5 L 135 368.5 L 135 366.5 L 133 363.5 L 127 345.5 L 127 342.5 L 125 337.5 L 125 333.5 L 124 332.5 L 124 328.5 L 123 327.5 L 122 312.5 L 121 311.5 L 121 99.5 L 120 98.5 L 120 92.5 L 118 86.5 L 111.5 78 L 104.5 74 L 101.5 73 L 95.5 73 L 94.5 72 L 0 72 L 0 0 Z M 799 302 L 799 450 L 816 450 L 817 449 L 824 449 L 825 448 L 831 448 L 836 446 L 840 446 L 844 444 L 847 444 L 866 436 L 885 423 L 899 408 L 905 399 L 912 385 L 917 370 L 918 361 L 919 360 L 919 352 L 920 351 L 920 302 L 799 302 Z M 1063 302 L 1061 304 L 1061 348 L 1060 349 L 1060 355 L 1059 356 L 1059 360 L 1056 369 L 1056 372 L 1053 381 L 1051 384 L 1051 386 L 1049 389 L 1049 391 L 1044 401 L 1034 417 L 1026 427 L 1009 444 L 1003 448 L 1003 449 L 1235 449 L 1236 448 L 1244 447 L 1255 442 L 1257 442 L 1273 431 Q 1281 424 1287 414 L 1292 404 L 1295 395 Q 1294 391 1296 391 L 1296 385 L 1297 384 L 1297 368 L 1296 367 L 1296 362 L 1294 357 L 1294 354 L 1286 337 L 1281 330 Q 1272 319 1261 312 L 1251 307 L 1245 305 L 1242 305 L 1241 304 L 1238 304 L 1237 303 L 1230 303 L 1229 302 L 1063 302 Z M 799 522 L 799 680 L 1113 680 L 1114 679 L 1231 679 L 1232 678 L 1240 677 L 1249 673 L 1251 673 L 1257 670 L 1271 660 Q 1280 652 1286 642 L 1292 630 L 1295 621 L 1295 618 L 1296 617 L 1296 611 L 1297 610 L 1297 592 L 1296 591 L 1295 581 L 1292 572 L 1286 560 L 1276 547 L 1260 533 L 1248 527 L 1239 524 L 1236 524 L 1235 523 L 1230 523 L 1229 522 L 799 522 Z " /></svg>